<?xml version="1.0" encoding="utf-8"?>
<!-- Generator: Adobe Illustrator 16.0.0, SVG Export Plug-In . SVG Version: 6.00 Build 0)  -->
<!DOCTYPE svg PUBLIC "-//W3C//DTD SVG 1.1//EN" "http://www.w3.org/Graphics/SVG/1.1/DTD/svg11.dtd">
<svg version="1.1" id="横版中英" xmlns="http://www.w3.org/2000/svg" xmlns:xlink="http://www.w3.org/1999/xlink" x="0px"
	 y="0px" width="500px" height="141px" viewBox="0 0 500 141" enable-background="new 0 0 500 141" xml:space="preserve">
<g>
	<g>
		<path fill="#333333" d="M253.027,46.978c-0.181-0.181-0.379-0.392-0.59-0.633s-0.467-0.513-0.769-0.817
			c-0.604-0.603-1.419-1.146-2.445-1.628c-1.028-0.482-2.507-0.724-4.44-0.724c-4.228,0-7.442,1.478-9.647,4.438
			c-2.204,2.958-3.306,6.221-3.306,9.781c0,0.061,0,0.107,0,0.138s0,0.077,0,0.134c0.061,3.142,1.178,6.01,3.352,8.609
			c2.174,2.596,5.374,3.892,9.602,3.892c4.408,0,7.383-1.041,8.924-3.125c1.541-2.08,2.792-4.994,3.761-8.739
			c0-0.061,0.013-0.104,0.045-0.138c0.03-0.03,0.044-0.073,0.044-0.138l7.156,0.547v1.722c0,0.904-0.105,1.842-0.316,2.807
			s-0.529,1.933-0.951,2.897c-1.268,2.78-3.457,5.316-6.567,7.611c-3.11,2.294-7.142,3.443-12.095,3.443
			c-5.858,0-10.749-1.843-14.675-5.527s-5.888-8.395-5.888-14.133c0-6.221,1.66-10.99,4.983-14.311
			c3.319-3.322,6.943-5.437,10.87-6.344c0.844-0.182,1.645-0.315,2.399-0.409c0.756-0.09,1.524-0.134,2.31-0.134
			c4.469,0,8.305,1.239,11.507,3.715c3.199,2.476,5.797,5.494,7.79,9.058l-27.177,14.676l-3.171-5.708L253.027,46.978z"/>
		<path fill="#333333" d="M278.937,19.349v36.69c0,4.167,1.07,7.563,3.216,10.19c2.142,2.626,5.177,3.938,9.103,3.938
			c3.504,0,6.266-1.008,8.291-3.034c2.023-2.021,3.336-4.241,3.939-6.656c0.181-0.663,0.318-1.3,0.408-1.902
			c0.091-0.604,0.136-1.21,0.136-1.813c0-4.349-1.087-7.594-3.261-9.738c-2.174-2.144-4.561-3.396-7.157-3.758
			c-0.303,0-0.588-0.017-0.859-0.047c-0.272-0.03-0.559-0.044-0.862-0.044c-1.689,0-3.157,0.225-4.393,0.677
			c-1.238,0.455-2.433,0.951-3.578,1.494c-0.061,0-0.122,0.017-0.181,0.047c-0.063,0.03-0.122,0.043-0.181,0.043
			c-0.364,0.182-0.712,0.353-1.042,0.5c-0.333,0.153-0.68,0.317-1.042,0.499v-7.159c1.146-0.663,2.323-1.206,3.532-1.628
			c1.208-0.422,2.414-0.754,3.623-0.994c0.663-0.061,1.3-0.121,1.902-0.185c0.604-0.057,1.208-0.091,1.813-0.091
			c5.012,0,9.512,1.709,13.498,5.119c3.984,3.413,5.978,8.019,5.978,13.814c0,5.496-1.752,10.494-5.252,14.993
			c-3.504,4.499-8.606,6.75-15.313,6.75c-6.763,0-11.774-2.161-15.037-6.479c-3.259-4.318-4.891-9.406-4.891-15.265V19.349H278.937z
			"/>
		<path fill="#333333" d="M336.143,69.066c0.09,0,0.165,0,0.228,0c1.207-0.057,2.31-0.302,3.306-0.727
			c0.997-0.423,1.494-1.3,1.494-2.634c0-1.57-0.83-2.783-2.49-3.631c-1.661-0.848-3.82-1.635-6.477-2.358
			c-0.604-0.184-1.24-0.365-1.903-0.546c-0.665-0.181-1.359-0.365-2.083-0.546c-3.504-0.968-6.283-2.361-8.335-4.177
			c-2.053-1.816-3.08-4.298-3.08-7.443c0-4.482,1.688-6.931,4.531-8.492c3.219-1.771,6.612-1.771,10.779-1.771h14.766v6.344h-15.4
			c-1.933,0.061-3.595,0.302-4.982,0.724c-1.391,0.423-2.084,1.297-2.084,2.627c0,1.511,0.726,2.626,2.174,3.353
			c1.451,0.724,10.72,3.41,10.962,3.531c4.168,1.57,7.08,3.279,8.742,5.118c1.661,1.843,2.492,4.274,2.492,7.292
			c-0.183,3.444-1.164,5.876-2.945,7.293c-1.781,1.42-3.729,2.312-5.843,2.673c-0.726,0.121-1.449,0.198-2.175,0.228
			c-0.725,0.03-1.418,0.044-2.083,0.044c-0.061,0-18.934,0-18.934,0v-6.9C316.802,69.066,336.052,69.066,336.143,69.066z"/>
		<path fill="#333333" d="M402.317,33.392c0-3.986,0.83-6.961,2.492-8.924c1.658-1.96,3.455-3.307,5.39-4.03
			c1.024-0.422,2.023-0.693,2.988-0.817c0.966-0.12,1.812-0.181,2.537-0.181l6.523-0.091v6.978h-5.256
			c-3.08,0.061-5.104,0.857-6.069,2.398s-1.511,3.216-1.632,5.028c-0.06,0.302-0.089,0.603-0.089,0.904c0,0.305,0,0.606,0,0.908
			c0,0.12,0,0.241,0,0.361c0,0.121,0.029,0.211,0.089,0.271c0,0.061,0,0.124,0,0.181c0,0.061,0,0.124,0,0.181
			c0,0.182,0.016,0.349,0.047,0.5c0.03,0.15,0.046,0.288,0.046,0.408l11.595-0.091v6.975h-11.595v31.435h-7.066V33.392z"/>
		<path fill="#333333" d="M223.68,19.613h-4.1h-4.104l-10.172,44.79c-0.179,0.75-0.326,1.487-0.44,2.211
			c-0.104,0.64-0.157,1.099-0.168,1.394c-0.013-0.335-0.073-0.82-0.188-1.471c-0.127-0.724-0.295-1.434-0.499-2.134l-10.648-40.274
			c-0.04-0.208-0.098-0.412-0.161-0.613l-0.131-0.492h-0.052c-0.859-2.01-2.835-3.42-5.14-3.42s-4.283,1.41-5.143,3.42h-0.057
			l-0.147,0.553c-0.003,0.014-0.007,0.027-0.01,0.04l-10.867,41.021c-0.179,0.674-0.331,1.356-0.459,2.054
			c-0.12,0.649-0.181,1.136-0.189,1.474c-0.008-0.291-0.062-0.743-0.169-1.377c-0.113-0.683-0.263-1.399-0.44-2.15l-10.046-45.024
			h-4.141h-4.102l13.777,53.168h0.018c0.676,2.194,2.692,3.788,5.088,3.788s4.412-1.594,5.088-3.788h0.021l10.92-40.265
			c0.205-0.724,0.372-1.44,0.499-2.15c0.128-0.71,0.191-1.232,0.191-1.567h0.01c0,0.281,0.077,0.787,0.231,1.511
			c0.152,0.724,0.332,1.46,0.536,2.207l11.178,40.265h0.034c0.677,2.194,2.692,3.788,5.088,3.788c2.394,0,4.412-1.594,5.089-3.788
			h0.026L223.68,19.613z"/>
		<path fill="#333333" d="M394.527,55.992c0,11.182-9.066,20.246-20.246,20.246c-11.184,0-20.248-9.064-20.248-20.246
			s9.064-20.246,20.248-20.246C385.461,35.746,394.527,44.811,394.527,55.992z M374.281,42.509c-7.448,0-13.484,6.037-13.484,13.483
			s6.036,13.482,13.484,13.482c7.444,0,13.481-6.036,13.481-13.482S381.726,42.509,374.281,42.509z"/>
		<path fill="#333333" d="M500,38.962c0-11.182-9.064-20.246-20.246-20.246s-20.246,9.064-20.246,20.246
			c0,10.706,8.311,19.466,18.833,20.192l4.868-7.158c-1.104,0.291-2.259,0.448-3.455,0.448c-7.446,0-13.482-6.036-13.482-13.482
			s6.036-13.483,13.482-13.483s13.482,6.037,13.482,13.483c0,2.921-0.931,5.621-2.509,7.832l0,0l-7.959,12.189l-11.771,16.813h7.671
			l17.314-24.728c0.228-0.306,0.442-0.617,0.653-0.932l0.091-0.131h-0.007C498.791,46.83,500,43.038,500,38.962z"/>
		<path fill="#333333" d="M449.06,36.741h-14.855V27.05h-7.611v35.964v0.09c0,0.077,0.007,0.583,0.01,1.012
			c0,0.087-0.01,0.171-0.01,0.258c0,6.405,5.192,11.594,11.597,11.594l0,0c0.061,0,10.237,0,10.237,0v-7.064h-9.062
			c-0.059,0-0.112-0.004-0.171-0.004c-0.11,0.007-0.223,0.018-0.336,0.018c-0.246,0-0.484-0.027-0.721-0.064
			c-0.038-0.003-0.078-0.003-0.115-0.006c-0.149-0.014-0.3-0.058-0.449-0.114c-1.675-0.482-2.958-1.879-3.275-3.618l0,0
			c0,0,0-0.01-0.002-0.013c-0.049-0.269-0.077-0.543-0.077-0.824c0-0.037,0.005-0.074,0.005-0.11
			c-0.002-0.044-0.003-0.088-0.005-0.128V53.49c-0.005,0.003-0.01,0.006-0.015,0.006v-9.777h14.855V36.741z"/>
	</g>
	<linearGradient id="SVGID_1_" gradientUnits="userSpaceOnUse" x1="63.1553" y1="1.6084" x2="63.1553" y2="140.3931">
		<stop  offset="0.1" style="stop-color:#52E5E7"/>
		<stop  offset="0.9" style="stop-color:#130CB7"/>
	</linearGradient>
	<path fill="url(#SVGID_1_)" d="M63.155,125.587l63.155-36.459v6.563c0,6.415-4.548,14.294-10.104,17.499L73.26,137.988
		c-5.557,3.205-14.652,3.205-20.209,0l-42.946-24.799C4.547,109.984,0,102.105,0,95.69v-6.563L63.155,125.587z M116.206,28.598
		L73.26,3.803c-1.975-1.139-4.396-1.866-6.948-2.194v16.414l44.208,25.525L66.312,69.073v18.229l59.999-34.641v-6.562
		C126.311,39.682,121.763,31.807,116.206,28.598z M59.998,87.303L0,52.662v-6.562c0-6.419,4.547-14.294,10.104-17.503L53.05,3.803
		c1.975-1.139,4.397-1.866,6.948-2.194v16.424L15.799,43.558l44.199,25.509V87.303z M66.312,94.608l59.999-34.64v7.437
		l-59.999,34.579V94.608z M66.312,109.072l59.999-34.579v7.309l-59.999,34.641V109.072z"/>
	<g>
		<path fill="#333333" d="M174.926,120.392c2.429-1.973,4.528-4.422,6.301-7.35c-1.787-2.321-3.518-4.418-5.192-6.287l3.643-1.263
			c0.335,0.452,0.816,1.095,1.446,1.926c0.864,1.129,1.47,1.953,1.82,2.466c0.796-1.819,1.318-3.604,1.569-5.363l3.706,1.155
			c0.377,0.135,0.662,0.262,0.859,0.386v-3.527h-25.103v3.591l2.699-1.232c0.211,0.214,0.489,0.512,0.838,0.891
			c1.216,1.276,2.184,2.358,2.911,3.253c0.432-1.263,0.817-2.717,1.152-4.361l3.601,0.817c0.738,0.164,1.122,0.335,1.15,0.509
			c0.056,0.164-0.229,0.415-0.859,0.754c-0.181,0.134-0.405,0.506-0.67,1.108c-0.696,1.675-1.296,3.052-1.799,4.131
			c1.478,1.725,2.916,3.621,4.312,5.688l-3.642,1.661c-0.769-1.417-1.591-2.76-2.472-4.036c-1.115,1.923-2.546,3.939-4.291,6.057
			c-0.95-0.412-1.926-0.733-2.931-0.972v1.726c0.041,1.53,0.16,3.038,0.354,4.515h-4.458c0.193-1.5,0.306-2.978,0.335-4.438v-18.183
			c-0.014-1.54-0.084-2.903-0.21-4.097c2.038,0.145,4.096,0.225,6.176,0.245h21.104c1.719-0.011,3.685-0.091,5.905-0.245
			c-0.211,1.571-0.321,2.918-0.335,4.037v20.031c0.027,0.134,0.04,0.241,0.04,0.325c0,1.715-2.986,2.609-8.96,2.68
			c-0.041-0.955-0.711-2.08-2.01-3.373c2.357,0.154,4.097,0.234,5.214,0.244c1.312,0.011,1.961-0.422,1.947-1.293v-2.683
			l-2.847,1.387c-1.089-2.238-2.061-3.993-2.911-5.27c-1.397,2.087-2.75,3.916-4.062,5.487
			C177.444,120.941,175.999,120.576,174.926,120.392z M168.958,112.241c-1.787-2.221-3.448-4.08-4.982-5.577v12.173
			C166.208,116.791,167.869,114.593,168.958,112.241z M185.288,112.982c0.432,0.582,1.103,1.53,2.01,2.833
			c0.809,1.163,1.402,2.004,1.78,2.526V106.57c-0.154,0.134-0.427,0.278-0.817,0.433c-0.225,0.08-0.495,0.512-0.817,1.293
			C186.928,109.508,186.209,111.069,185.288,112.982z"/>
		<path fill="#333333" d="M277.312,116.386c-4.398,4.807-10.231,8.712-17.503,11.71c-1.158-0.8-2.582-1.54-4.271-2.217
			c5.792-1.646,10.76-4.211,14.906-7.705c3.474-3.246,6.008-6.82,7.6-10.726h-7.895c-1.842,2.6-4.158,5.282-6.95,8.043
			c-1.199-0.563-2.784-1.099-4.752-1.602c5.611-3.624,9.338-8.746,11.18-15.362l4.375,1.002c0.516,0.114,0.785,0.268,0.808,0.462
			c0.02,0.194-0.208,0.433-0.681,0.707c-0.462,0.208-0.83,0.64-1.11,1.297c-0.474,1.099-0.991,2.13-1.549,3.095h6.95
			c1.299,0,3.154-0.097,5.569-0.291c-1.466,3.205-2.966,6.056-4.5,8.552c4.144,5.631,9.664,9.46,16.56,11.496
			c-1.633,0.616-3.12,1.497-4.461,2.649C285.519,124.568,280.759,120.864,277.312,116.386z"/>
		<path fill="#333333" d="M361.776,98.588l4.082,0.911c0.935,0.194,1.415,0.398,1.445,0.616c0.054,0.204-0.328,0.482-1.152,0.831
			c-0.419,0.288-0.705,0.637-0.857,1.049c-0.141,0.358-0.44,1.041-0.901,2.05h4.67c1.142,0.01,2.504-0.098,4.081-0.325v2.911
			c-1.829-0.204-3.19-0.302-4.081-0.292h-5.527c-0.937,2.208-2.08,4.442-3.434,6.703h3.266v-1.356c0-0.646-0.099-1.775-0.295-3.39
			l3.937,0.385c0.698,0.063,1.124,0.222,1.277,0.479c0.029,0.06,0.042,0.124,0.042,0.184c0,0.229-0.195,0.446-0.586,0.664
			c-0.308,0.184-0.469,0.656-0.482,1.416v1.618h1.256c0.754,0,1.397-0.02,1.927-0.06c0.614-0.044,1.313-0.121,2.094-0.231v2.851
			c-1.662-0.174-3.002-0.265-4.021-0.265h-1.256v3.377c1.843-0.309,4.063-0.812,6.659-1.511c-0.225,1.172-0.314,2.174-0.272,3.004
			c-0.489,0.084-1.188,0.191-2.094,0.325c-1.759,0.274-3.19,0.513-4.293,0.707v3.497c0,0.626,0.021,1.146,0.063,1.558
			c0.056,0.462,0.154,0.955,0.293,1.48h-4.544c0.014-0.104,0.035-0.255,0.064-0.448c0.167-1.283,0.244-2.147,0.23-2.59v-2.773
			c-2.931,0.649-5.493,1.396-7.685,2.251c-0.559-1.447-1.158-2.63-1.8-3.544c4.062-0.299,7.224-0.71,9.484-1.233v-4.1h-3.685
			c-0.727,0.054-1.802,0.244-3.226,0.572c-0.516-1.202-1.019-2.106-1.508-2.713c0.824-0.309,1.384-0.656,1.675-1.049
			c1.468-2.341,2.486-4.277,3.059-5.809h-1.256c-1.005,0-2.318,0.107-3.937,0.325v-2.975c1.521,0.225,2.833,0.346,3.937,0.355h2.113
			C361.098,102.46,361.51,100.645,361.776,98.588z M368.644,125.507c6.753-2.157,10.083-6.241,9.985-12.25
			c0-1.233-0.161-2.717-0.482-4.452l4.126,0.479c0.865,0.11,1.331,0.23,1.401,0.352c0.07,0.124,0.105,0.207,0.105,0.248
			c0,0.194-0.244,0.445-0.731,0.753c-0.322,0.218-0.482,0.7-0.482,1.451c0.474,6.029,4.521,10.26,12.143,12.695
			c-1.549,0.402-2.792,1.286-3.727,2.649c-4.635-2.063-7.797-4.82-9.485-8.273c-1.212,3.299-4.381,6.2-9.503,8.706
			C371.196,126.826,370.08,126.043,368.644,125.507z M369.92,111.271c3.601-3.276,5.743-7.571,6.428-12.884l4.082,0.925
			c0.796,0.167,1.225,0.365,1.288,0.603c0.062,0.234-0.241,0.499-0.911,0.784c-0.476,0.114-0.957,0.925-1.444,2.436
			c-0.153,0.338-0.356,0.884-0.607,1.635h9.736c1.045,0.02,2.462-0.094,4.249-0.339c-0.95,2.228-2.149,4.603-3.602,7.118
			c-0.558-0.094-1.703-0.268-3.434-0.525c-0.544-0.081-0.899-0.138-1.066-0.168c1.31-1.541,2.211-2.8,2.7-3.774h-9.611
			c-1.242,2.341-2.399,4.16-3.474,5.453C372.954,111.887,371.511,111.465,369.92,111.271z"/>
		<path fill="#333333" d="M452.374,112.597c5.318-3.688,8.82-8.277,10.511-13.761l4.062,1.232c0.712,0.215,1.092,0.412,1.141,0.593
			c0.048,0.182-0.227,0.372-0.826,0.576c-0.419,0.104-0.837,0.489-1.256,1.156c-0.56,1.018-1.384,2.388-2.473,4.116v17.828
			c-0.013,0.904,0.084,1.986,0.295,3.249h-4.502c0.11-0.687,0.188-1.272,0.231-1.755c0.04-0.463,0.062-0.962,0.062-1.494v-13.161
			c-0.712,0.783-1.71,1.778-2.993,2.991C455.369,113.468,453.952,112.945,452.374,112.597z M465.335,111.994
			c2.817-3.063,4.361-6.405,4.626-10.029l4.062,0.783c0.544,0.104,0.829,0.252,0.859,0.449c0.026,0.194-0.218,0.415-0.733,0.66
			c-0.225,0.167-0.405,0.375-0.545,0.633c-0.07,0.185-0.176,0.422-0.313,0.71c-0.113,0.265-0.211,0.492-0.294,0.677h4.46v-3.406
			c0.014-1.056-0.084-2.288-0.293-3.698l4.104,0.418c0.754,0.071,1.172,0.205,1.256,0.399c0.084,0.197-0.161,0.469-0.733,0.817
			c-0.168,0.113-0.278,0.301-0.335,0.563c-0.056,0.261-0.084,0.717-0.084,1.363v3.544h4.754c0.837,0.021,2.135-0.066,3.894-0.261
			v2.91c-1.131-0.124-1.935-0.2-2.407-0.23c-0.502-0.04-0.998-0.061-1.486-0.061h-4.754v6.022h7.581
			c0.851,0.023,2.146-0.07,3.892-0.274v2.941c-0.961-0.11-1.729-0.188-2.301-0.231c-0.533-0.04-1.063-0.061-1.591-0.061h-7.581
			v7.829c-0.014,0.616,0.084,1.678,0.295,3.188h-4.502c0.125-0.801,0.206-1.417,0.241-1.842c0.033-0.426,0.052-0.875,0.052-1.347
			v-7.829h-7.537c-0.67-0.02-1.948,0.077-3.83,0.292v-2.975c1.045,0.134,1.792,0.218,2.239,0.248c0.474,0.04,0.977,0.06,1.507,0.06
			h7.621v-6.022h-5.359c-0.782,1.785-1.627,3.41-2.534,4.867C468.628,112.848,467.218,112.477,465.335,111.994z"/>
	</g>
</g>
</svg>
