<?xml version="1.0" encoding="utf-8"?>
<!-- Generator: Adobe Illustrator 23.0.4, SVG Export Plug-In . SVG Version: 6.00 Build 0)  -->
<svg version="1.1" id="Layer_1" xmlns="http://www.w3.org/2000/svg" xmlns:xlink="http://www.w3.org/1999/xlink" x="0px" y="0px"
	 viewBox="0 0 636 650" style="enable-background:new 0 0 636 650;" xml:space="preserve">
<style type="text/css">
	
		.st0{fill:none;stroke:#939393;stroke-width:1.4137;stroke-linecap:round;stroke-linejoin:round;stroke-miterlimit:10;stroke-dasharray:2.8273,4.7122;}
	.st1{fill:none;stroke:#939393;stroke-width:1.4137;stroke-linecap:round;stroke-linejoin:round;stroke-dasharray:2.8273,4.7122;}
	.st2{fill:#939393;}
	.st3{fill:url(#SVGID_1_);}
	.st4{fill:#8FC3EC;}
	.st5{fill:#B5D5EA;}
	.st6{fill:url(#SVGID_2_);}
	.st7{fill:#FDA84C;}
	.st8{fill:#ED8422;}
	.st9{fill:#349EDC;}
	.st10{fill:#0090DB;}
	.st11{fill:#9C80E0;}
	.st12{fill:#8867C8;}
	.st13{fill:#FCC74F;}
	.st14{fill:#B8AAF2;}
	.st15{fill:#A9D4EE;}
	.st16{fill:#FFFFFF;}
	.st17{fill:url(#SVGID_3_);}
	.st18{fill:#106EBE;}
</style>
<g>
	<path class="st0" d="M473.2,216.63v23.56c0,6.77-5.49,12.25-12.25,12.25H176.32c-6.77,0-12.25-5.49-12.25-12.25v-23.56"/>
	<g>
		<g>
			<line class="st1" x1="316.42" y1="231.48" x2="316.42" y2="276.27"/>
			<g>
				<polygon class="st2" points="310.64,271.58 311.68,270.62 316.42,275.72 321.17,270.62 322.2,271.58 316.42,277.8 				"/>
			</g>
		</g>
	</g>
	
		<linearGradient id="SVGID_1_" gradientUnits="userSpaceOnUse" x1="315.1" y1="23.98" x2="315.1" y2="85.71" gradientTransform="matrix(1 0 0 -1 0 650)">
		<stop  offset="0" style="stop-color:#2488D8"/>
		<stop  offset="0.7152" style="stop-color:#106EBE"/>
	</linearGradient>
	<path class="st3" d="M408.88,626.02H221.32c-4.55,0-8.24-3.69-8.24-8.24v-45.25c0-4.55,3.69-8.24,8.24-8.24h187.56
		c4.55,0,8.24,3.69,8.24,8.24v45.25C417.12,622.33,413.43,626.02,408.88,626.02z"/>
	<path class="st4" d="M213.08,605.77v12.01c0,4.55,3.69,8.24,8.24,8.24h187.56c4.55,0,8.24-3.69,8.24-8.24v-12.01H213.08z"/>
	<g>
		<g>
			<line class="st1" x1="317.05" y1="513.64" x2="317.05" y2="558.43"/>
			<g>
				<polygon class="st2" points="311.27,553.74 312.3,552.78 317.05,557.88 321.8,552.78 322.83,553.74 317.05,559.96 				"/>
			</g>
		</g>
	</g>
	<g>
		<g>
			<line class="st1" x1="317.05" y1="382.93" x2="317.05" y2="427.71"/>
			<g>
				<polygon class="st2" points="311.27,423.03 312.3,422.06 317.05,427.17 321.8,422.06 322.83,423.03 317.05,429.25 				"/>
			</g>
		</g>
	</g>
	<path class="st4" d="M374.26,533.95H257.67c-4.07,0-7.36-3.3-7.36-7.36v-85.18c0-4.07,3.3-7.36,7.36-7.36h116.59
		c4.07,0,7.36,3.3,7.36,7.36v85.18C381.62,530.65,378.33,533.95,374.26,533.95z"/>
	<g>
		<path class="st4" d="M329.11,280.75H277.1c-4.06,0-7.36,3.29-7.36,7.36v105.06c0,4.06,3.29,7.36,7.36,7.36h79.96
			c4.06,0,7.35-3.28,7.36-7.34l0.23-76.82c0-1.38-0.54-2.7-1.51-3.67l-30.36-30.43C331.81,281.3,330.49,280.75,329.11,280.75z"/>
		<path class="st5" d="M363.14,312.71l-30.36-30.43c-0.63-0.63-1.42-1.07-2.27-1.3v31.64c0,1.39,1.13,2.52,2.52,2.52h31.46
			C364.27,314.22,363.82,313.38,363.14,312.71z"/>
	</g>
	
		<linearGradient id="SVGID_2_" gradientUnits="userSpaceOnUse" x1="315.1" y1="285.41" x2="315.1" y2="337.71" gradientTransform="matrix(1 0 0 -1 0 650)">
		<stop  offset="0" style="stop-color:#2488D8"/>
		<stop  offset="0.7152" style="stop-color:#106EBE"/>
	</linearGradient>
	<path class="st6" d="M408.88,364.59H221.32c-4.55,0-8.24-3.69-8.24-8.24v-35.82c0-4.55,3.69-8.24,8.24-8.24h187.56
		c4.55,0,8.24,3.69,8.24,8.24v35.82C417.12,360.9,413.43,364.59,408.88,364.59z"/>
	<g>
		<path class="st7" d="M220.18,231.32c0.04-0.23,0.07-0.46,0.07-0.71V161.2c0-2.23-1.8-4.03-4.03-4.03H114.07
			c-2.23,0-4.03,1.8-4.03,4.03v69.41c0,0.24,0.03,0.48,0.07,0.71H220.18z"/>
		<path class="st8" d="M228.91,233.17H101.23c-0.45,0-0.82-0.37-0.82-0.82v-1.2c0-0.45,0.37-0.82,0.82-0.82h127.68
			c0.45,0,0.82,0.37,0.82,0.82v1.2C229.73,232.8,229.36,233.17,228.91,233.17z"/>
		<path class="st8" d="M100.62,233.01l8.59,2.4c0.67,0.19,1.37,0.28,2.07,0.28h109.9c0.72,0,1.43-0.13,2.11-0.39l5.61-2.14
			L100.62,233.01z"/>
	</g>
	<g>
		<path class="st9" d="M524.23,231.52c0.04-0.23,0.07-0.46,0.07-0.71V161.4c0-2.23-1.8-4.03-4.03-4.03H418.12
			c-2.23,0-4.03,1.8-4.03,4.03v69.41c0,0.24,0.03,0.48,0.07,0.71H524.23z"/>
		<path class="st10" d="M532.96,233.36H405.28c-0.45,0-0.82-0.37-0.82-0.82v-1.2c0-0.45,0.37-0.82,0.82-0.82h127.68
			c0.45,0,0.82,0.37,0.82,0.82v1.2C533.78,233,533.41,233.36,532.96,233.36z"/>
		<path class="st10" d="M404.67,233.21l8.59,2.4c0.67,0.19,1.37,0.28,2.07,0.28h109.9c0.72,0,1.43-0.13,2.11-0.39l5.61-2.14
			L404.67,233.21z"/>
	</g>
	<g>
		<path class="st11" d="M371.17,230.92c0.04-0.23,0.07-0.46,0.07-0.71V160.8c0-2.23-1.8-4.03-4.03-4.03H265.06
			c-2.23,0-4.03,1.8-4.03,4.03v69.41c0,0.24,0.03,0.48,0.07,0.71H371.17z"/>
		<path class="st12" d="M379.9,232.77H252.21c-0.45,0-0.82-0.37-0.82-0.82v-1.2c0-0.45,0.37-0.82,0.82-0.82H379.9
			c0.45,0,0.82,0.37,0.82,0.82v1.2C380.71,232.4,380.35,232.77,379.9,232.77z"/>
		<path class="st12" d="M251.61,232.62l8.59,2.4c0.67,0.19,1.37,0.28,2.07,0.28h109.9c0.72,0,1.43-0.13,2.11-0.39l5.61-2.14
			L251.61,232.62z"/>
	</g>
	<g>
		<g>
			<line class="st1" x1="164.56" y1="113.96" x2="164.56" y2="153.09"/>
			<g>
				<polygon class="st2" points="158.78,148.41 159.81,147.45 164.56,152.55 169.3,147.45 170.34,148.41 164.56,154.63 				"/>
			</g>
		</g>
	</g>
	<g>
		<g>
			<line class="st1" x1="316.42" y1="113.96" x2="316.42" y2="153.09"/>
			<g>
				<polygon class="st2" points="310.64,148.41 311.68,147.45 316.42,152.55 321.17,147.45 322.2,148.41 316.42,154.63 				"/>
			</g>
		</g>
	</g>
	<g>
		<g>
			<line class="st1" x1="470.56" y1="113.96" x2="470.56" y2="153.09"/>
			<g>
				<polygon class="st2" points="464.78,148.41 465.82,147.45 470.56,152.55 475.31,147.45 476.34,148.41 470.56,154.63 				"/>
			</g>
		</g>
	</g>
	<g>
		<path class="st7" d="M174.5,23.74h-41.71c-3.26,0-5.9,2.64-5.9,5.9v84.27c0,3.26,2.64,5.9,5.9,5.9h64.14
			c3.25,0,5.89-2.63,5.9-5.88l0.18-61.61c0-1.1-0.43-2.17-1.21-2.95l-24.35-24.41C176.66,24.18,175.6,23.74,174.5,23.74z"/>
		<path class="st13" d="M201.79,49.37l-24.35-24.41c-0.51-0.51-1.14-0.85-1.82-1.05v25.38c0,1.12,0.91,2.02,2.02,2.02h25.23
			C202.69,50.58,202.33,49.91,201.79,49.37z"/>
	</g>
	<g>
		<path class="st11" d="M326.76,25.8h-41.71c-3.26,0-5.9,2.64-5.9,5.9v84.27c0,3.26,2.64,5.9,5.9,5.9h64.14
			c3.25,0,5.89-2.63,5.9-5.88l0.18-61.61c0-1.1-0.43-2.17-1.21-2.95L329.7,27.02C328.92,26.24,327.86,25.8,326.76,25.8z"/>
		<path class="st14" d="M354.05,51.42l-24.35-24.4c-0.51-0.51-1.14-0.85-1.82-1.05v25.38c0,1.12,0.91,2.02,2.02,2.02h25.23
			C354.95,52.64,354.59,51.96,354.05,51.42z"/>
	</g>
	<g>
		<path class="st9" d="M478.15,24.08h-41.71c-3.26,0-5.9,2.64-5.9,5.9v84.27c0,3.26,2.64,5.9,5.9,5.9h64.14
			c3.25,0,5.89-2.63,5.9-5.88l0.18-61.61c0-1.1-0.43-2.17-1.21-2.95L481.09,25.3C480.31,24.52,479.25,24.08,478.15,24.08z"/>
		<path class="st15" d="M505.44,49.71L481.09,25.3c-0.51-0.51-1.14-0.85-1.82-1.05v25.38c0,1.12,0.91,2.02,2.02,2.02h25.23
			C506.34,50.93,505.98,50.25,505.44,49.71z"/>
	</g>
	<g>
		<path class="st16" d="M459.77,55.47l-4.33,11.7h-1.51l-4.24-11.7h1.53l3.24,9.27c0.1,0.3,0.18,0.64,0.24,1.04h0.03
			c0.04-0.33,0.13-0.68,0.27-1.05l3.3-9.26C458.3,55.47,459.77,55.47,459.77,55.47z"/>
		<path class="st16" d="M461.95,56.7c-0.24,0-0.44-0.08-0.61-0.24c-0.17-0.16-0.25-0.37-0.25-0.62s0.08-0.46,0.25-0.62
			c0.17-0.17,0.37-0.25,0.61-0.25c0.25,0,0.45,0.08,0.62,0.25c0.17,0.17,0.26,0.37,0.26,0.62c0,0.24-0.09,0.44-0.26,0.61
			S462.2,56.7,461.95,56.7z M462.61,67.17h-1.34v-8.35h1.34V67.17z"/>
		<path class="st16" d="M464.81,66.87v-1.44c0.73,0.54,1.53,0.81,2.41,0.81c1.17,0,1.76-0.39,1.76-1.17c0-0.22-0.05-0.41-0.15-0.57
			c-0.1-0.15-0.24-0.29-0.41-0.41c-0.17-0.12-0.37-0.23-0.6-0.32c-0.23-0.1-0.48-0.19-0.75-0.3c-0.37-0.15-0.69-0.29-0.97-0.44
			c-0.28-0.15-0.51-0.32-0.7-0.51s-0.33-0.4-0.42-0.64c-0.1-0.24-0.14-0.52-0.14-0.84c0-0.39,0.09-0.74,0.27-1.04
			s0.42-0.55,0.72-0.76c0.3-0.2,0.64-0.36,1.02-0.46c0.38-0.1,0.78-0.16,1.19-0.16c0.72,0,1.37,0.13,1.94,0.38v1.35
			c-0.61-0.4-1.32-0.6-2.12-0.6c-0.25,0-0.48,0.03-0.68,0.09c-0.2,0.06-0.37,0.14-0.52,0.24c-0.14,0.1-0.26,0.23-0.33,0.37
			c-0.08,0.14-0.12,0.3-0.12,0.48c0,0.22,0.04,0.4,0.12,0.55c0.08,0.15,0.19,0.28,0.35,0.39c0.15,0.11,0.34,0.22,0.55,0.31
			c0.22,0.09,0.46,0.19,0.74,0.3c0.37,0.14,0.7,0.29,1,0.44c0.29,0.15,0.54,0.32,0.75,0.51s0.37,0.4,0.48,0.65
			c0.11,0.25,0.17,0.54,0.17,0.87c0,0.41-0.09,0.77-0.27,1.08c-0.18,0.3-0.43,0.56-0.73,0.76c-0.3,0.2-0.66,0.35-1.05,0.45
			c-0.4,0.1-0.81,0.15-1.25,0.15C466.18,67.37,465.44,67.2,464.81,66.87z"/>
		<path class="st16" d="M479.16,67.17h-1.34v-1.32h-0.03c-0.55,1.01-1.41,1.52-2.58,1.52c-1.99,0-2.99-1.19-2.99-3.56v-4.99h1.33
			v4.78c0,1.76,0.67,2.64,2.02,2.64c0.65,0,1.19-0.24,1.61-0.72c0.42-0.48,0.63-1.11,0.63-1.89v-4.81h1.34v8.35H479.16z"/>
		<path class="st16" d="M487.84,67.17h-1.34v-1.31h-0.03c-0.58,1-1.44,1.5-2.57,1.5c-0.83,0-1.48-0.22-1.95-0.66
			s-0.71-1.02-0.71-1.75c0-1.56,0.92-2.47,2.76-2.72l2.5-0.35c0-1.42-0.57-2.13-1.72-2.13c-1.01,0-1.91,0.34-2.72,1.03v-1.37
			c0.82-0.52,1.77-0.78,2.84-0.78c1.96,0,2.94,1.04,2.94,3.12V67.17z M486.5,62.95l-2.01,0.28c-0.62,0.09-1.09,0.24-1.4,0.46
			s-0.47,0.61-0.47,1.17c0,0.41,0.15,0.74,0.44,1s0.68,0.39,1.16,0.39c0.66,0,1.21-0.23,1.64-0.7c0.43-0.46,0.65-1.05,0.65-1.77
			v-0.83H486.5z"/>
		<path class="st16" d="M491.69,67.17h-1.34V54.81h1.34V67.17z"/>
		<path class="st16" d="M454.36,87.22v-11.7h3.33c1.01,0,1.81,0.25,2.41,0.74c0.59,0.5,0.89,1.14,0.89,1.93
			c0,0.66-0.18,1.24-0.54,1.73c-0.36,0.49-0.85,0.84-1.48,1.04V81c0.79,0.09,1.42,0.39,1.89,0.89s0.71,1.16,0.71,1.96
			c0,1-0.36,1.81-1.08,2.43s-1.62,0.93-2.72,0.93h-3.41V87.22z M455.73,76.76v3.78h1.4c0.75,0,1.34-0.18,1.77-0.54
			s0.64-0.87,0.64-1.53c0-1.14-0.75-1.71-2.24-1.71H455.73z M455.73,81.77v4.21h1.86c0.8,0,1.43-0.19,1.87-0.57s0.66-0.9,0.66-1.57
			c0-1.38-0.94-2.07-2.82-2.07H455.73z"/>
		<path class="st16" d="M469.74,87.22h-1.34v-1.31h-0.03c-0.58,1-1.44,1.5-2.57,1.5c-0.83,0-1.48-0.22-1.95-0.66
			s-0.71-1.02-0.71-1.75c0-1.56,0.92-2.47,2.76-2.72l2.5-0.35c0-1.42-0.57-2.13-1.72-2.13c-1.01,0-1.91,0.34-2.72,1.03v-1.37
			c0.82-0.52,1.77-0.78,2.84-0.78c1.96,0,2.94,1.04,2.94,3.12V87.22z M468.4,82.99l-2.01,0.28c-0.62,0.09-1.09,0.24-1.4,0.46
			s-0.47,0.61-0.47,1.17c0,0.41,0.15,0.74,0.44,1s0.68,0.39,1.16,0.39c0.66,0,1.21-0.23,1.64-0.7c0.43-0.46,0.65-1.05,0.65-1.77
			v-0.83H468.4z"/>
		<path class="st16" d="M471.75,86.92v-1.44c0.73,0.54,1.53,0.81,2.41,0.81c1.17,0,1.76-0.39,1.76-1.17c0-0.22-0.05-0.41-0.15-0.57
			c-0.1-0.15-0.24-0.29-0.41-0.41s-0.37-0.23-0.6-0.32c-0.23-0.1-0.48-0.19-0.75-0.3c-0.37-0.15-0.69-0.29-0.97-0.44
			s-0.51-0.32-0.7-0.51s-0.33-0.4-0.42-0.64c-0.1-0.24-0.14-0.52-0.14-0.84c0-0.39,0.09-0.74,0.27-1.04s0.42-0.55,0.72-0.76
			c0.3-0.2,0.64-0.36,1.02-0.46c0.38-0.1,0.78-0.16,1.19-0.16c0.72,0,1.37,0.13,1.94,0.38v1.35c-0.61-0.4-1.32-0.6-2.12-0.6
			c-0.25,0-0.48,0.03-0.68,0.09c-0.2,0.06-0.37,0.14-0.52,0.24c-0.14,0.1-0.26,0.23-0.33,0.37c-0.08,0.14-0.12,0.3-0.12,0.48
			c0,0.22,0.04,0.4,0.12,0.55s0.19,0.28,0.35,0.39c0.15,0.11,0.34,0.22,0.55,0.31c0.22,0.09,0.46,0.19,0.74,0.3
			c0.37,0.14,0.7,0.29,1,0.44c0.29,0.15,0.54,0.32,0.75,0.51s0.37,0.4,0.48,0.65c0.11,0.25,0.17,0.54,0.17,0.87
			c0,0.41-0.09,0.77-0.27,1.08c-0.18,0.3-0.43,0.56-0.73,0.76c-0.3,0.2-0.66,0.35-1.05,0.45c-0.4,0.1-0.81,0.15-1.25,0.15
			C473.13,87.41,472.38,87.25,471.75,86.92z"/>
		<path class="st16" d="M480.03,76.74c-0.24,0-0.44-0.08-0.61-0.24c-0.17-0.16-0.25-0.37-0.25-0.62s0.08-0.46,0.25-0.62
			c0.17-0.17,0.37-0.25,0.61-0.25c0.25,0,0.45,0.08,0.62,0.25c0.17,0.17,0.26,0.37,0.26,0.62c0,0.24-0.09,0.44-0.26,0.61
			S480.28,76.74,480.03,76.74z M480.68,87.22h-1.34v-8.35h1.34V87.22z"/>
		<path class="st16" d="M489.09,86.83c-0.64,0.39-1.4,0.58-2.28,0.58c-1.19,0-2.15-0.39-2.88-1.16s-1.1-1.78-1.1-3.01
			c0-1.38,0.39-2.48,1.18-3.32c0.79-0.83,1.84-1.25,3.16-1.25c0.73,0,1.38,0.14,1.94,0.41v1.37c-0.62-0.44-1.28-0.65-1.99-0.65
			c-0.85,0-1.55,0.31-2.1,0.92c-0.55,0.61-0.82,1.42-0.82,2.41c0,0.98,0.26,1.75,0.77,2.32c0.51,0.57,1.2,0.85,2.07,0.85
			c0.73,0,1.41-0.24,2.06-0.73L489.09,86.83L489.09,86.83z"/>
		<path class="st16" d="M460.3,106.88c-0.64,0.39-1.4,0.58-2.28,0.58c-1.19,0-2.15-0.39-2.88-1.16s-1.1-1.78-1.1-3.01
			c0-1.38,0.39-2.48,1.18-3.32c0.79-0.83,1.84-1.25,3.16-1.25c0.73,0,1.38,0.14,1.94,0.41v1.37c-0.62-0.44-1.28-0.65-1.99-0.65
			c-0.85,0-1.55,0.31-2.1,0.92c-0.55,0.61-0.82,1.42-0.82,2.41c0,0.98,0.26,1.75,0.77,2.32c0.51,0.57,1.2,0.85,2.07,0.85
			c0.73,0,1.41-0.24,2.06-0.73L460.3,106.88L460.3,106.88z"/>
		<path class="st16" d="M465.82,107.46c-1.23,0-2.22-0.39-2.96-1.17s-1.11-1.81-1.11-3.1c0-1.4,0.38-2.5,1.15-3.29
			s1.8-1.18,3.11-1.18c1.25,0,2.22,0.38,2.92,1.15c0.7,0.77,1.05,1.83,1.05,3.19c0,1.33-0.38,2.4-1.13,3.2
			S467.08,107.46,465.82,107.46z M465.91,99.84c-0.86,0-1.54,0.29-2.04,0.88c-0.5,0.58-0.75,1.39-0.75,2.42
			c0,0.99,0.25,1.77,0.76,2.34s1.18,0.86,2.03,0.86c0.86,0,1.53-0.28,1.99-0.84s0.7-1.36,0.7-2.39c0-1.04-0.23-1.85-0.7-2.41
			S466.78,99.84,465.91,99.84z"/>
		<path class="st16" d="M479.24,107.26h-1.34v-1.42h-0.03c-0.62,1.08-1.58,1.62-2.87,1.62c-1.05,0-1.89-0.37-2.52-1.12
			c-0.63-0.75-0.94-1.77-0.94-3.05c0-1.38,0.35-2.49,1.04-3.32s1.62-1.25,2.78-1.25c1.15,0,1.98,0.45,2.5,1.35h0.03V94.9h1.34
			L479.24,107.26L479.24,107.26z M477.9,103.49v-1.23c0-0.67-0.22-1.25-0.67-1.71c-0.45-0.47-1.01-0.7-1.7-0.7
			c-0.82,0-1.46,0.3-1.93,0.9s-0.7,1.42-0.7,2.48c0,0.96,0.22,1.72,0.67,2.28s1.05,0.84,1.81,0.84c0.75,0,1.35-0.27,1.82-0.81
			C477.67,104.99,477.9,104.31,477.9,103.49z"/>
		<path class="st16" d="M488.66,103.42h-5.9c0.02,0.93,0.27,1.65,0.75,2.15s1.14,0.76,1.97,0.76c0.94,0,1.81-0.31,2.59-0.93v1.26
			c-0.73,0.53-1.71,0.8-2.91,0.8c-1.18,0-2.11-0.38-2.78-1.14s-1.01-1.83-1.01-3.2c0-1.3,0.37-2.36,1.11-3.18s1.65-1.23,2.74-1.23
			s1.94,0.35,2.54,1.06s0.9,1.69,0.9,2.94L488.66,103.42L488.66,103.42z M487.29,102.29c0-0.77-0.19-1.37-0.56-1.8
			s-0.88-0.64-1.53-0.64c-0.63,0-1.17,0.23-1.61,0.68c-0.44,0.45-0.71,1.04-0.82,1.77L487.29,102.29L487.29,102.29z"/>
	</g>
	<g>
		<path class="st16" d="M314.84,56.71h-4.57v4.05h4.23v1.23h-4.23v5.18h-1.37v-11.7h5.94V56.71z"/>
		<path class="st16" d="M325.04,58.75l-0.19,0.86h-2.13l-0.51,2.45h2.29l-0.22,0.86h-2.24l-0.72,3.24h-1.03l0.7-3.24h-2.04
			l-0.69,3.24h-1.02l0.69-3.24h-2.14l0.16-0.86h2.16l0.5-2.45h-2.26l0.17-0.86h2.26l0.69-3.28h1.03l-0.69,3.28h2.06l0.7-3.28h1
			l-0.69,3.28H325.04z M321.71,59.62h-2.06l-0.54,2.45h2.07L321.71,59.62z"/>
		<path class="st16" d="M305.39,86.83c-0.64,0.39-1.4,0.58-2.28,0.58c-1.19,0-2.15-0.39-2.88-1.16s-1.1-1.78-1.1-3.01
			c0-1.38,0.39-2.48,1.18-3.32c0.79-0.83,1.84-1.25,3.16-1.25c0.73,0,1.38,0.14,1.94,0.41v1.37c-0.62-0.44-1.28-0.65-1.99-0.65
			c-0.85,0-1.55,0.31-2.1,0.92c-0.55,0.61-0.82,1.42-0.82,2.41c0,0.98,0.26,1.75,0.77,2.32c0.51,0.57,1.2,0.85,2.07,0.85
			c0.73,0,1.41-0.24,2.06-0.73L305.39,86.83L305.39,86.83z"/>
		<path class="st16" d="M310.91,87.41c-1.23,0-2.22-0.39-2.96-1.17s-1.11-1.81-1.11-3.1c0-1.4,0.38-2.5,1.15-3.29
			s1.8-1.18,3.11-1.18c1.25,0,2.22,0.38,2.92,1.15c0.7,0.77,1.05,1.83,1.05,3.19c0,1.33-0.38,2.4-1.13,3.2
			S312.17,87.41,310.91,87.41z M311.01,79.79c-0.86,0-1.54,0.29-2.04,0.88c-0.5,0.58-0.75,1.39-0.75,2.42
			c0,0.99,0.25,1.77,0.76,2.34s1.18,0.86,2.03,0.86c0.86,0,1.53-0.28,1.99-0.84s0.7-1.36,0.7-2.39c0-1.04-0.23-1.85-0.7-2.41
			S311.87,79.79,311.01,79.79z"/>
		<path class="st16" d="M324.33,87.22H323V85.8h-0.03c-0.62,1.08-1.58,1.62-2.87,1.62c-1.05,0-1.89-0.37-2.52-1.12
			c-0.63-0.75-0.94-1.77-0.94-3.05c0-1.38,0.35-2.49,1.04-3.32s1.62-1.25,2.78-1.25c1.15,0,1.98,0.45,2.5,1.35H323v-5.17h1.34v12.36
			H324.33z M323,83.44v-1.23c0-0.67-0.22-1.25-0.67-1.71c-0.45-0.47-1.01-0.7-1.7-0.7c-0.82,0-1.46,0.3-1.93,0.9s-0.7,1.42-0.7,2.48
			c0,0.96,0.22,1.72,0.67,2.28s1.05,0.84,1.81,0.84c0.75,0,1.35-0.27,1.82-0.81C322.76,84.94,323,84.26,323,83.44z"/>
		<path class="st16" d="M333.75,83.38h-5.9c0.02,0.93,0.27,1.65,0.75,2.15s1.14,0.76,1.97,0.76c0.94,0,1.81-0.31,2.59-0.93v1.26
			c-0.73,0.53-1.71,0.8-2.91,0.8c-1.18,0-2.11-0.38-2.78-1.14s-1.01-1.83-1.01-3.2c0-1.3,0.37-2.36,1.11-3.18s1.65-1.23,2.74-1.23
			s1.94,0.35,2.54,1.06s0.9,1.69,0.9,2.94L333.75,83.38L333.75,83.38z M332.38,82.24c0-0.77-0.19-1.37-0.56-1.8
			s-0.88-0.64-1.53-0.64c-0.63,0-1.17,0.23-1.61,0.68c-0.44,0.45-0.71,1.04-0.82,1.77L332.38,82.24L332.38,82.24z"/>
	</g>
	<g>
		<path d="M161.63,66.68c-0.86,0.46-1.94,0.69-3.23,0.69c-1.66,0-3-0.54-4-1.61s-1.5-2.48-1.5-4.22c0-1.87,0.56-3.38,1.69-4.54
			s2.55-1.73,4.28-1.73c1.11,0,2.03,0.16,2.76,0.48v1.46c-0.84-0.47-1.76-0.7-2.77-0.7c-1.34,0-2.43,0.45-3.27,1.35
			c-0.83,0.9-1.25,2.1-1.25,3.6c0,1.42,0.39,2.56,1.17,3.41s1.8,1.27,3.07,1.27c1.17,0,2.19-0.26,3.05-0.78V66.68z"/>
		<path d="M171.99,58.75l-0.19,0.86h-2.13l-0.51,2.45h2.29l-0.22,0.86h-2.24l-0.72,3.24h-1.03l0.7-3.24h-2.04l-0.69,3.24h-1.02
			l0.69-3.24h-2.14l0.16-0.86h2.16l0.5-2.45h-2.26l0.17-0.86h2.26l0.69-3.28h1.03l-0.69,3.28h2.06l0.7-3.28h1l-0.69,3.28H171.99z
			 M168.66,59.62h-2.06l-0.54,2.45h2.07L168.66,59.62z"/>
		<path d="M151.25,86.83c-0.64,0.39-1.4,0.58-2.28,0.58c-1.19,0-2.15-0.39-2.88-1.16s-1.1-1.78-1.1-3.01c0-1.38,0.39-2.48,1.18-3.32
			c0.79-0.83,1.84-1.25,3.16-1.25c0.73,0,1.38,0.14,1.94,0.41v1.37c-0.62-0.44-1.28-0.65-1.99-0.65c-0.85,0-1.55,0.31-2.1,0.92
			s-0.82,1.42-0.82,2.41c0,0.98,0.26,1.75,0.77,2.32c0.51,0.57,1.2,0.85,2.07,0.85c0.73,0,1.41-0.24,2.06-0.73L151.25,86.83
			L151.25,86.83z"/>
		<path d="M156.76,87.41c-1.23,0-2.22-0.39-2.96-1.17s-1.11-1.81-1.11-3.1c0-1.4,0.38-2.5,1.15-3.29c0.77-0.79,1.8-1.18,3.11-1.18
			c1.25,0,2.22,0.38,2.92,1.15c0.7,0.77,1.05,1.83,1.05,3.19c0,1.33-0.38,2.4-1.13,3.2S158.03,87.41,156.76,87.41z M156.86,79.79
			c-0.86,0-1.54,0.29-2.04,0.88c-0.5,0.58-0.75,1.39-0.75,2.42c0,0.99,0.25,1.77,0.76,2.34s1.18,0.86,2.03,0.86
			c0.86,0,1.53-0.28,1.99-0.84s0.7-1.36,0.7-2.39c0-1.04-0.23-1.85-0.7-2.41S157.73,79.79,156.86,79.79z"/>
		<path d="M170.19,87.22h-1.34V85.8h-0.03c-0.62,1.08-1.58,1.62-2.87,1.62c-1.05,0-1.89-0.37-2.52-1.12s-0.94-1.77-0.94-3.05
			c0-1.38,0.35-2.49,1.04-3.32s1.62-1.25,2.78-1.25c1.15,0,1.98,0.45,2.5,1.35h0.03v-5.17h1.34v12.36H170.19z M168.85,83.44v-1.23
			c0-0.67-0.22-1.25-0.67-1.71c-0.45-0.47-1.01-0.7-1.7-0.7c-0.82,0-1.46,0.3-1.93,0.9s-0.7,1.42-0.7,2.48
			c0,0.96,0.22,1.72,0.67,2.28s1.05,0.84,1.81,0.84c0.75,0,1.35-0.27,1.82-0.81C168.62,84.94,168.85,84.26,168.85,83.44z"/>
		<path d="M179.61,83.38h-5.9c0.02,0.93,0.27,1.65,0.75,2.15s1.14,0.76,1.97,0.76c0.94,0,1.81-0.31,2.59-0.93v1.26
			c-0.73,0.53-1.71,0.8-2.91,0.8c-1.18,0-2.11-0.38-2.78-1.14s-1.01-1.83-1.01-3.2c0-1.3,0.37-2.36,1.11-3.18s1.65-1.23,2.74-1.23
			s1.94,0.35,2.54,1.06c0.6,0.71,0.9,1.69,0.9,2.94V83.38z M178.24,82.24c0-0.77-0.19-1.37-0.56-1.8s-0.88-0.64-1.53-0.64
			c-0.63,0-1.17,0.23-1.61,0.68s-0.71,1.04-0.82,1.77L178.24,82.24L178.24,82.24z"/>
	</g>
	<g>
		<path class="st16" d="M459.77,168.64l-4.33,11.7h-1.51l-4.24-11.7h1.53l3.24,9.27c0.1,0.3,0.18,0.64,0.24,1.04h0.03
			c0.04-0.33,0.13-0.68,0.27-1.05l3.3-9.26H459.77z"/>
		<path class="st16" d="M461.95,169.87c-0.24,0-0.44-0.08-0.61-0.24c-0.17-0.16-0.25-0.37-0.25-0.62s0.08-0.46,0.25-0.62
			c0.17-0.17,0.37-0.25,0.61-0.25c0.25,0,0.45,0.08,0.62,0.25c0.17,0.17,0.26,0.37,0.26,0.62c0,0.24-0.09,0.44-0.26,0.61
			S462.2,169.87,461.95,169.87z M462.61,180.34h-1.34v-8.35h1.34V180.34z"/>
		<path class="st16" d="M464.81,180.04v-1.44c0.73,0.54,1.53,0.81,2.41,0.81c1.17,0,1.76-0.39,1.76-1.17c0-0.22-0.05-0.41-0.15-0.57
			c-0.1-0.15-0.24-0.29-0.41-0.41c-0.17-0.12-0.37-0.23-0.6-0.32c-0.23-0.1-0.48-0.19-0.75-0.3c-0.37-0.15-0.69-0.29-0.97-0.44
			c-0.28-0.15-0.51-0.32-0.7-0.51s-0.33-0.4-0.42-0.64c-0.1-0.24-0.14-0.52-0.14-0.84c0-0.39,0.09-0.74,0.27-1.04
			s0.42-0.55,0.72-0.76c0.3-0.2,0.64-0.36,1.02-0.46c0.38-0.1,0.78-0.16,1.19-0.16c0.72,0,1.37,0.13,1.94,0.38v1.35
			c-0.61-0.4-1.32-0.6-2.12-0.6c-0.25,0-0.48,0.03-0.68,0.09c-0.2,0.06-0.37,0.14-0.52,0.24c-0.14,0.1-0.26,0.23-0.33,0.37
			c-0.08,0.14-0.12,0.3-0.12,0.48c0,0.22,0.04,0.4,0.12,0.55c0.08,0.15,0.19,0.28,0.35,0.39c0.15,0.11,0.34,0.22,0.55,0.31
			c0.22,0.09,0.46,0.19,0.74,0.3c0.37,0.14,0.7,0.29,1,0.44c0.29,0.15,0.54,0.32,0.75,0.51c0.21,0.19,0.37,0.4,0.48,0.65
			c0.11,0.25,0.17,0.54,0.17,0.87c0,0.41-0.09,0.77-0.27,1.08c-0.18,0.3-0.43,0.56-0.73,0.76c-0.3,0.2-0.66,0.35-1.05,0.45
			c-0.4,0.1-0.81,0.15-1.25,0.15C466.18,180.53,465.44,180.37,464.81,180.04z"/>
		<path class="st16" d="M479.16,180.34h-1.34v-1.32h-0.03c-0.55,1.01-1.41,1.52-2.58,1.52c-1.99,0-2.99-1.19-2.99-3.56v-4.99h1.33
			v4.78c0,1.76,0.67,2.64,2.02,2.64c0.65,0,1.19-0.24,1.61-0.72c0.42-0.48,0.63-1.11,0.63-1.89v-4.81h1.34v8.35H479.16z"/>
		<path class="st16" d="M487.84,180.34h-1.34v-1.31h-0.03c-0.58,1-1.44,1.5-2.57,1.5c-0.83,0-1.48-0.22-1.95-0.66
			s-0.71-1.02-0.71-1.75c0-1.56,0.92-2.47,2.76-2.72l2.5-0.35c0-1.42-0.57-2.13-1.72-2.13c-1.01,0-1.91,0.34-2.72,1.03v-1.37
			c0.82-0.52,1.77-0.78,2.84-0.78c1.96,0,2.94,1.04,2.94,3.12V180.34z M486.5,176.11l-2.01,0.28c-0.62,0.09-1.09,0.24-1.4,0.46
			s-0.47,0.61-0.47,1.17c0,0.41,0.15,0.74,0.44,1s0.68,0.39,1.16,0.39c0.66,0,1.21-0.23,1.64-0.7c0.43-0.46,0.65-1.05,0.65-1.77
			v-0.83H486.5z"/>
		<path class="st16" d="M491.69,180.34h-1.34v-12.37h1.34V180.34z"/>
		<path class="st16" d="M454.36,200.38v-11.7h3.33c1.01,0,1.81,0.25,2.41,0.74c0.59,0.5,0.89,1.14,0.89,1.93
			c0,0.66-0.18,1.24-0.54,1.73c-0.36,0.49-0.85,0.84-1.48,1.04v0.03c0.79,0.09,1.42,0.39,1.89,0.89s0.71,1.16,0.71,1.96
			c0,1-0.36,1.81-1.08,2.43s-1.62,0.93-2.72,0.93h-3.41V200.38z M455.73,189.93v3.78h1.4c0.75,0,1.34-0.18,1.77-0.54
			s0.64-0.87,0.64-1.53c0-1.14-0.75-1.71-2.24-1.71H455.73z M455.73,194.94v4.21h1.86c0.8,0,1.43-0.19,1.87-0.57s0.66-0.9,0.66-1.57
			c0-1.38-0.94-2.07-2.82-2.07L455.73,194.94L455.73,194.94z"/>
		<path class="st16" d="M469.74,200.38h-1.34v-1.31h-0.03c-0.58,1-1.44,1.5-2.57,1.5c-0.83,0-1.48-0.22-1.95-0.66
			s-0.71-1.02-0.71-1.75c0-1.56,0.92-2.47,2.76-2.72l2.5-0.35c0-1.42-0.57-2.13-1.72-2.13c-1.01,0-1.91,0.34-2.72,1.03v-1.37
			c0.82-0.52,1.77-0.78,2.84-0.78c1.96,0,2.94,1.04,2.94,3.12V200.38z M468.4,196.16l-2.01,0.28c-0.62,0.09-1.09,0.24-1.4,0.46
			s-0.47,0.61-0.47,1.17c0,0.41,0.15,0.74,0.44,1s0.68,0.39,1.16,0.39c0.66,0,1.21-0.23,1.64-0.7c0.43-0.46,0.65-1.05,0.65-1.77
			v-0.83H468.4z"/>
		<path class="st16" d="M471.75,200.08v-1.44c0.73,0.54,1.53,0.81,2.41,0.81c1.17,0,1.76-0.39,1.76-1.17c0-0.22-0.05-0.41-0.15-0.57
			c-0.1-0.15-0.24-0.29-0.41-0.41c-0.17-0.12-0.37-0.23-0.6-0.32c-0.23-0.1-0.48-0.19-0.75-0.3c-0.37-0.15-0.69-0.29-0.97-0.44
			c-0.28-0.15-0.51-0.32-0.7-0.51s-0.33-0.4-0.42-0.64c-0.1-0.24-0.14-0.52-0.14-0.84c0-0.39,0.09-0.74,0.27-1.04
			s0.42-0.55,0.72-0.76c0.3-0.2,0.64-0.36,1.02-0.46c0.38-0.1,0.78-0.16,1.19-0.16c0.72,0,1.37,0.13,1.94,0.38v1.35
			c-0.61-0.4-1.32-0.6-2.12-0.6c-0.25,0-0.48,0.03-0.68,0.09c-0.2,0.06-0.37,0.14-0.52,0.24c-0.14,0.1-0.26,0.23-0.33,0.37
			c-0.08,0.14-0.12,0.3-0.12,0.48c0,0.22,0.04,0.4,0.12,0.55c0.08,0.15,0.19,0.28,0.35,0.39c0.15,0.11,0.34,0.22,0.55,0.31
			c0.22,0.09,0.46,0.19,0.74,0.3c0.37,0.14,0.7,0.29,1,0.44c0.29,0.15,0.54,0.32,0.75,0.51c0.21,0.19,0.37,0.4,0.48,0.65
			c0.11,0.25,0.17,0.54,0.17,0.87c0,0.41-0.09,0.77-0.27,1.08c-0.18,0.3-0.43,0.56-0.73,0.76c-0.3,0.2-0.66,0.35-1.05,0.45
			c-0.4,0.1-0.81,0.15-1.25,0.15C473.13,200.58,472.38,200.41,471.75,200.08z"/>
		<path class="st16" d="M480.03,189.91c-0.24,0-0.44-0.08-0.61-0.24c-0.17-0.16-0.25-0.37-0.25-0.62s0.08-0.46,0.25-0.62
			c0.17-0.17,0.37-0.25,0.61-0.25c0.25,0,0.45,0.08,0.62,0.25c0.17,0.17,0.26,0.37,0.26,0.62c0,0.24-0.09,0.44-0.26,0.61
			S480.28,189.91,480.03,189.91z M480.68,200.38h-1.34v-8.35h1.34V200.38z"/>
		<path class="st16" d="M489.09,200c-0.64,0.39-1.4,0.58-2.28,0.58c-1.19,0-2.15-0.39-2.88-1.16s-1.1-1.78-1.1-3.01
			c0-1.38,0.39-2.48,1.18-3.32c0.79-0.83,1.84-1.25,3.16-1.25c0.73,0,1.38,0.14,1.94,0.41v1.37c-0.62-0.44-1.28-0.65-1.99-0.65
			c-0.85,0-1.55,0.31-2.1,0.92c-0.55,0.61-0.82,1.42-0.82,2.41c0,0.98,0.26,1.75,0.77,2.32c0.51,0.57,1.2,0.85,2.07,0.85
			c0.73,0,1.41-0.24,2.06-0.73L489.09,200L489.09,200z"/>
		<path class="st16" d="M446.17,220.05c-0.64,0.39-1.4,0.58-2.28,0.58c-1.19,0-2.15-0.39-2.88-1.16s-1.1-1.78-1.1-3.01
			c0-1.38,0.39-2.48,1.18-3.32c0.79-0.83,1.84-1.25,3.16-1.25c0.73,0,1.38,0.14,1.94,0.41v1.37c-0.62-0.44-1.28-0.65-1.99-0.65
			c-0.85,0-1.55,0.31-2.1,0.92c-0.55,0.61-0.82,1.42-0.82,2.41c0,0.98,0.26,1.75,0.77,2.32c0.51,0.57,1.2,0.85,2.07,0.85
			c0.73,0,1.41-0.24,2.06-0.73L446.17,220.05L446.17,220.05z"/>
		<path class="st16" d="M451.68,220.63c-1.23,0-2.22-0.39-2.96-1.17s-1.11-1.81-1.11-3.1c0-1.4,0.38-2.5,1.15-3.29
			s1.8-1.18,3.11-1.18c1.25,0,2.22,0.38,2.92,1.15c0.7,0.77,1.05,1.83,1.05,3.19c0,1.33-0.38,2.4-1.13,3.2
			S452.95,220.63,451.68,220.63z M451.78,213.01c-0.86,0-1.54,0.29-2.04,0.88c-0.5,0.58-0.75,1.39-0.75,2.42
			c0,0.99,0.25,1.77,0.76,2.34c0.51,0.57,1.18,0.86,2.03,0.86c0.86,0,1.53-0.28,1.99-0.84s0.7-1.36,0.7-2.39
			c0-1.04-0.23-1.85-0.7-2.41S452.64,213.01,451.78,213.01z"/>
		<path class="st16" d="M469.84,220.43h-1.34v-4.8c0-0.92-0.14-1.59-0.43-2.01c-0.29-0.41-0.77-0.62-1.44-0.62
			c-0.57,0-1.06,0.26-1.46,0.78s-0.6,1.15-0.6,1.88v4.76h-1.34v-4.96c0-1.64-0.63-2.46-1.9-2.46c-0.59,0-1.07,0.25-1.45,0.74
			s-0.57,1.13-0.57,1.92v4.76h-1.34v-8.35h1.34v1.32h0.03c0.59-1.01,1.46-1.52,2.59-1.52c0.57,0,1.07,0.16,1.49,0.48
			c0.42,0.32,0.71,0.74,0.87,1.25c0.62-1.15,1.54-1.73,2.77-1.73c1.84,0,2.76,1.13,2.76,3.4v5.16H469.84z"/>
		<path class="st16" d="M473.74,219.22h-0.03v5.05h-1.34v-12.19h1.34v1.47h0.03c0.66-1.11,1.62-1.66,2.89-1.66
			c1.08,0,1.92,0.37,2.52,1.12c0.6,0.75,0.91,1.75,0.91,3.01c0,1.4-0.34,2.52-1.02,3.36s-1.61,1.26-2.79,1.26
			C475.16,220.63,474.32,220.16,473.74,219.22z M473.7,215.85v1.17c0,0.69,0.22,1.28,0.67,1.76s1.02,0.72,1.71,0.72
			c0.81,0,1.45-0.31,1.91-0.93s0.69-1.48,0.69-2.59c0-0.93-0.21-1.66-0.64-2.19c-0.43-0.53-1.01-0.79-1.75-0.79
			c-0.78,0-1.4,0.27-1.88,0.81S473.7,215.04,473.7,215.85z"/>
		<path class="st16" d="M482.87,209.96c-0.24,0-0.44-0.08-0.61-0.24c-0.17-0.16-0.25-0.37-0.25-0.62s0.08-0.46,0.25-0.62
			c0.17-0.17,0.37-0.25,0.61-0.25c0.25,0,0.45,0.08,0.62,0.25c0.17,0.17,0.26,0.37,0.26,0.62c0,0.24-0.09,0.44-0.26,0.61
			S483.12,209.96,482.87,209.96z M483.52,220.43h-1.34v-8.35h1.34V220.43z"/>
		<path class="st16" d="M487.57,220.43h-1.34v-12.37h1.34V220.43z"/>
		<path class="st16" d="M496.99,216.59h-5.9c0.02,0.93,0.27,1.65,0.75,2.15s1.14,0.76,1.97,0.76c0.94,0,1.81-0.31,2.59-0.93v1.26
			c-0.73,0.53-1.71,0.8-2.91,0.8c-1.18,0-2.11-0.38-2.78-1.14s-1.01-1.83-1.01-3.2c0-1.3,0.37-2.36,1.11-3.18
			c0.74-0.82,1.65-1.23,2.74-1.23s1.94,0.35,2.54,1.06c0.6,0.71,0.9,1.69,0.9,2.94L496.99,216.59L496.99,216.59z M495.62,215.45
			c0-0.77-0.19-1.37-0.56-1.8c-0.37-0.43-0.88-0.64-1.53-0.64c-0.63,0-1.17,0.23-1.61,0.68c-0.44,0.45-0.71,1.04-0.82,1.77
			L495.62,215.45L495.62,215.45z"/>
		<path class="st16" d="M503.37,213.43c-0.23-0.18-0.57-0.27-1.01-0.27c-0.57,0-1.05,0.27-1.43,0.81s-0.58,1.27-0.58,2.2v4.26h-1.34
			v-8.35h1.34v1.72h0.03c0.19-0.59,0.48-1.05,0.87-1.37c0.39-0.33,0.83-0.49,1.31-0.49c0.35,0,0.61,0.04,0.8,0.11v1.38H503.37z"/>
	</g>
	<g>
		<path class="st16" d="M314.84,175.2h-4.57v4.05h4.23v1.23h-4.23v5.18h-1.37v-11.7h5.94V175.2z"/>
		<path class="st16" d="M325.04,177.24l-0.19,0.86h-2.13l-0.51,2.45h2.29l-0.22,0.86h-2.24l-0.72,3.24h-1.03l0.7-3.24h-2.04
			l-0.69,3.24h-1.02l0.69-3.24h-2.14l0.16-0.86h2.16l0.5-2.45h-2.26l0.17-0.86h2.26l0.69-3.28h1.03l-0.69,3.28h2.06l0.7-3.28h1
			l-0.69,3.28H325.04z M321.71,178.1h-2.06l-0.54,2.45h2.07L321.71,178.1z"/>
		<path class="st16" d="M291.26,205.32c-0.64,0.39-1.4,0.58-2.28,0.58c-1.19,0-2.15-0.39-2.88-1.16s-1.1-1.78-1.1-3.01
			c0-1.38,0.39-2.48,1.18-3.32c0.79-0.83,1.84-1.25,3.16-1.25c0.73,0,1.38,0.14,1.94,0.41v1.37c-0.62-0.44-1.28-0.65-1.99-0.65
			c-0.85,0-1.55,0.31-2.1,0.92c-0.55,0.61-0.82,1.42-0.82,2.41c0,0.98,0.26,1.75,0.77,2.32c0.51,0.57,1.2,0.85,2.07,0.85
			c0.73,0,1.41-0.24,2.06-0.73L291.26,205.32L291.26,205.32z"/>
		<path class="st16" d="M296.77,205.9c-1.23,0-2.22-0.39-2.96-1.17s-1.11-1.81-1.11-3.1c0-1.4,0.38-2.5,1.15-3.29
			s1.8-1.18,3.11-1.18c1.25,0,2.22,0.38,2.92,1.15c0.7,0.77,1.05,1.83,1.05,3.19c0,1.33-0.38,2.4-1.13,3.2
			S298.04,205.9,296.77,205.9z M296.87,198.28c-0.86,0-1.54,0.29-2.04,0.88c-0.5,0.58-0.75,1.39-0.75,2.42
			c0,0.99,0.25,1.77,0.76,2.34c0.51,0.57,1.18,0.86,2.03,0.86c0.86,0,1.53-0.28,1.99-0.84s0.7-1.36,0.7-2.39
			c0-1.04-0.23-1.85-0.7-2.41S297.73,198.28,296.87,198.28z"/>
		<path class="st16" d="M314.93,205.7h-1.34v-4.8c0-0.92-0.14-1.59-0.43-2.01c-0.29-0.41-0.77-0.62-1.44-0.62
			c-0.57,0-1.06,0.26-1.46,0.78s-0.6,1.15-0.6,1.88v4.76h-1.34v-4.96c0-1.64-0.63-2.46-1.9-2.46c-0.59,0-1.07,0.25-1.45,0.74
			s-0.57,1.13-0.57,1.92v4.76h-1.34v-8.35h1.34v1.32h0.03c0.59-1.01,1.46-1.52,2.59-1.52c0.57,0,1.07,0.16,1.49,0.48
			c0.42,0.32,0.71,0.74,0.87,1.25c0.62-1.15,1.54-1.73,2.77-1.73c1.84,0,2.76,1.13,2.76,3.4v5.16H314.93z"/>
		<path class="st16" d="M318.83,204.49h-0.03v5.05h-1.34v-12.19h1.34v1.47h0.03c0.66-1.11,1.62-1.66,2.89-1.66
			c1.08,0,1.92,0.37,2.52,1.12c0.6,0.75,0.91,1.75,0.91,3.01c0,1.4-0.34,2.52-1.02,3.36s-1.61,1.26-2.79,1.26
			C320.25,205.9,319.41,205.43,318.83,204.49z M318.79,201.12v1.17c0,0.69,0.22,1.28,0.67,1.76s1.02,0.72,1.71,0.72
			c0.81,0,1.45-0.31,1.91-0.93s0.69-1.48,0.69-2.59c0-0.93-0.21-1.66-0.64-2.19c-0.43-0.53-1.01-0.79-1.75-0.79
			c-0.78,0-1.4,0.27-1.88,0.81S318.79,200.31,318.79,201.12z"/>
		<path class="st16" d="M327.96,195.23c-0.24,0-0.44-0.08-0.61-0.24c-0.17-0.16-0.25-0.37-0.25-0.62s0.08-0.46,0.25-0.62
			c0.17-0.17,0.37-0.25,0.61-0.25c0.25,0,0.45,0.08,0.62,0.25c0.17,0.17,0.26,0.37,0.26,0.62c0,0.24-0.09,0.44-0.26,0.61
			S328.21,195.23,327.96,195.23z M328.61,205.7h-1.34v-8.35h1.34V205.7z"/>
		<path class="st16" d="M332.66,205.7h-1.34v-12.37h1.34V205.7z"/>
		<path class="st16" d="M342.08,201.86h-5.9c0.02,0.93,0.27,1.65,0.75,2.15s1.14,0.76,1.97,0.76c0.94,0,1.81-0.31,2.59-0.93v1.26
			c-0.73,0.53-1.71,0.8-2.91,0.8c-1.18,0-2.11-0.38-2.78-1.14s-1.01-1.83-1.01-3.2c0-1.3,0.37-2.36,1.11-3.18
			c0.74-0.82,1.65-1.23,2.74-1.23s1.94,0.35,2.54,1.06c0.6,0.71,0.9,1.69,0.9,2.94L342.08,201.86L342.08,201.86z M340.71,200.72
			c0-0.77-0.19-1.37-0.56-1.8c-0.37-0.43-0.88-0.64-1.53-0.64c-0.63,0-1.17,0.23-1.61,0.68c-0.44,0.45-0.71,1.04-0.82,1.77
			L340.71,200.72L340.71,200.72z"/>
		<path class="st16" d="M348.46,198.7c-0.23-0.18-0.57-0.27-1.01-0.27c-0.57,0-1.05,0.27-1.43,0.81s-0.58,1.27-0.58,2.2v4.26h-1.34
			v-8.35h1.34v1.72h0.03c0.19-0.59,0.48-1.05,0.87-1.37c0.39-0.33,0.83-0.49,1.31-0.49c0.35,0,0.61,0.04,0.8,0.11v1.38H348.46z"/>
	</g>
	<g>
		<path class="st16" d="M242.66,332.86c-0.86,0.46-1.94,0.69-3.23,0.69c-1.66,0-3-0.54-4-1.61c-1-1.07-1.5-2.48-1.5-4.22
			c0-1.87,0.56-3.38,1.69-4.54s2.55-1.73,4.28-1.73c1.11,0,2.03,0.16,2.76,0.48v1.46c-0.84-0.47-1.76-0.7-2.77-0.7
			c-1.34,0-2.43,0.45-3.27,1.35c-0.83,0.9-1.25,2.1-1.25,3.6c0,1.42,0.39,2.56,1.17,3.41s1.8,1.27,3.07,1.27
			c1.17,0,2.19-0.26,3.05-0.78V332.86z"/>
		<path class="st16" d="M248.35,333.55c-1.23,0-2.22-0.39-2.96-1.17s-1.11-1.81-1.11-3.1c0-1.4,0.38-2.5,1.15-3.29
			c0.77-0.79,1.8-1.18,3.11-1.18c1.25,0,2.22,0.38,2.92,1.15s1.05,1.83,1.05,3.19c0,1.33-0.38,2.4-1.13,3.2
			S249.62,333.55,248.35,333.55z M248.45,325.93c-0.86,0-1.54,0.29-2.04,0.88c-0.5,0.58-0.75,1.39-0.75,2.42
			c0,0.99,0.25,1.77,0.76,2.34s1.18,0.86,2.03,0.86c0.86,0,1.53-0.28,1.99-0.84s0.7-1.36,0.7-2.39c0-1.04-0.23-1.85-0.7-2.41
			S249.32,325.93,248.45,325.93z"/>
		<path class="st16" d="M266.51,333.35h-1.34v-4.8c0-0.92-0.14-1.59-0.43-2.01c-0.29-0.41-0.77-0.62-1.44-0.62
			c-0.57,0-1.06,0.26-1.46,0.78s-0.6,1.15-0.6,1.88v4.76h-1.34v-4.96c0-1.64-0.63-2.46-1.9-2.46c-0.59,0-1.07,0.25-1.45,0.74
			s-0.57,1.13-0.57,1.92v4.76h-1.34V325h1.34v1.32h0.03c0.59-1.01,1.46-1.52,2.59-1.52c0.57,0,1.07,0.16,1.49,0.48
			c0.42,0.32,0.71,0.74,0.87,1.25c0.62-1.15,1.54-1.73,2.77-1.73c1.84,0,2.76,1.13,2.76,3.4v5.15H266.51z"/>
		<path class="st16" d="M280.9,333.35h-1.34v-4.8c0-0.92-0.14-1.59-0.43-2.01c-0.29-0.41-0.77-0.62-1.44-0.62
			c-0.57,0-1.06,0.26-1.46,0.78s-0.6,1.15-0.6,1.88v4.76h-1.34v-4.96c0-1.64-0.63-2.46-1.9-2.46c-0.59,0-1.07,0.25-1.45,0.74
			s-0.57,1.13-0.57,1.92v4.76h-1.34V325h1.34v1.32h0.03c0.59-1.01,1.46-1.52,2.59-1.52c0.57,0,1.07,0.16,1.49,0.48
			c0.42,0.32,0.71,0.74,0.87,1.25c0.62-1.15,1.54-1.73,2.77-1.73c1.84,0,2.76,1.13,2.76,3.4v5.15H280.9z"/>
		<path class="st16" d="M286.92,333.55c-1.23,0-2.22-0.39-2.96-1.17s-1.11-1.81-1.11-3.1c0-1.4,0.38-2.5,1.15-3.29
			s1.8-1.18,3.11-1.18c1.25,0,2.22,0.38,2.92,1.15s1.05,1.83,1.05,3.19c0,1.33-0.38,2.4-1.13,3.2S288.19,333.55,286.92,333.55z
			 M287.02,325.93c-0.86,0-1.54,0.29-2.04,0.88c-0.5,0.58-0.75,1.39-0.75,2.42c0,0.99,0.25,1.77,0.76,2.34s1.18,0.86,2.03,0.86
			c0.86,0,1.53-0.28,1.99-0.84s0.7-1.36,0.7-2.39c0-1.04-0.23-1.85-0.7-2.41S287.88,325.93,287.02,325.93z"/>
		<path class="st16" d="M300.15,333.35h-1.34v-4.76c0-1.77-0.65-2.66-1.94-2.66c-0.67,0-1.22,0.25-1.66,0.75s-0.66,1.14-0.66,1.9
			v4.76h-1.34V325h1.34v1.39h0.03c0.63-1.05,1.54-1.58,2.74-1.58c0.91,0,1.61,0.29,2.1,0.89c0.48,0.59,0.73,1.44,0.73,2.56V333.35z"
			/>
		<path class="st16" d="M308.8,333.35h-1.37v-11.7h1.37V333.35z"/>
		<path class="st16" d="M318.62,333.35h-1.34v-4.76c0-1.77-0.65-2.66-1.94-2.66c-0.67,0-1.22,0.25-1.66,0.75s-0.66,1.14-0.66,1.9
			v4.76h-1.34V325h1.34v1.39h0.03c0.63-1.05,1.54-1.58,2.74-1.58c0.91,0,1.61,0.29,2.1,0.89c0.48,0.59,0.73,1.44,0.73,2.56V333.35z"
			/>
		<path class="st16" d="M325.02,333.27c-0.32,0.17-0.73,0.26-1.25,0.26c-1.46,0-2.19-0.82-2.19-2.45v-4.94h-1.44V325h1.44v-2.04
			l1.34-0.43V325h2.1v1.14h-2.1v4.71c0,0.56,0.09,0.96,0.29,1.2s0.51,0.36,0.95,0.36c0.34,0,0.63-0.09,0.87-0.28v1.14H325.02z"/>
		<path class="st16" d="M333.39,329.51h-5.9c0.02,0.93,0.27,1.65,0.75,2.15s1.14,0.76,1.97,0.76c0.94,0,1.81-0.31,2.59-0.93v1.26
			c-0.73,0.53-1.71,0.8-2.91,0.8c-1.18,0-2.11-0.38-2.78-1.14s-1.01-1.83-1.01-3.2c0-1.3,0.37-2.36,1.11-3.18s1.65-1.23,2.74-1.23
			s1.94,0.35,2.54,1.06s0.9,1.69,0.9,2.94L333.39,329.51L333.39,329.51z M332.02,328.38c0-0.77-0.19-1.37-0.56-1.8
			s-0.88-0.64-1.53-0.64c-0.63,0-1.17,0.23-1.61,0.68c-0.44,0.45-0.71,1.04-0.82,1.77L332.02,328.38L332.02,328.38z"/>
		<path class="st16" d="M339.77,326.35c-0.23-0.18-0.57-0.27-1.01-0.27c-0.57,0-1.05,0.27-1.43,0.81s-0.58,1.27-0.58,2.2v4.26h-1.34
			V325h1.34v1.72h0.03c0.19-0.59,0.48-1.05,0.87-1.37c0.39-0.33,0.83-0.49,1.31-0.49c0.35,0,0.61,0.04,0.8,0.11v1.38H339.77z"/>
		<path class="st16" d="M353.05,333.35h-1.34v-4.8c0-0.92-0.14-1.59-0.43-2.01c-0.29-0.41-0.77-0.62-1.44-0.62
			c-0.57,0-1.06,0.26-1.46,0.78s-0.6,1.15-0.6,1.88v4.76h-1.34v-4.96c0-1.64-0.63-2.46-1.9-2.46c-0.59,0-1.07,0.25-1.45,0.74
			s-0.57,1.13-0.57,1.92v4.76h-1.34V325h1.34v1.32h0.03c0.59-1.01,1.46-1.52,2.59-1.52c0.57,0,1.07,0.16,1.49,0.48
			c0.42,0.32,0.71,0.74,0.87,1.25c0.62-1.15,1.54-1.73,2.77-1.73c1.84,0,2.76,1.13,2.76,3.4v5.15H353.05z"/>
		<path class="st16" d="M362.29,329.51h-5.9c0.02,0.93,0.27,1.65,0.75,2.15s1.14,0.76,1.97,0.76c0.94,0,1.81-0.31,2.59-0.93v1.26
			c-0.73,0.53-1.71,0.8-2.91,0.8c-1.18,0-2.11-0.38-2.78-1.14s-1.01-1.83-1.01-3.2c0-1.3,0.37-2.36,1.11-3.18s1.65-1.23,2.74-1.23
			s1.94,0.35,2.54,1.06s0.9,1.69,0.9,2.94L362.29,329.51L362.29,329.51z M360.92,328.38c0-0.77-0.19-1.37-0.56-1.8
			s-0.88-0.64-1.53-0.64c-0.63,0-1.17,0.23-1.61,0.68c-0.44,0.45-0.71,1.04-0.82,1.77L360.92,328.38L360.92,328.38z"/>
		<path class="st16" d="M371.44,333.35h-1.34v-1.42h-0.03c-0.62,1.08-1.58,1.62-2.87,1.62c-1.05,0-1.89-0.37-2.52-1.12
			c-0.63-0.75-0.94-1.77-0.94-3.05c0-1.38,0.35-2.49,1.04-3.32s1.62-1.25,2.78-1.25c1.15,0,1.98,0.45,2.5,1.35h0.03v-5.17h1.34
			L371.44,333.35L371.44,333.35z M370.1,329.58v-1.23c0-0.67-0.22-1.25-0.67-1.71c-0.45-0.47-1.01-0.7-1.7-0.7
			c-0.82,0-1.46,0.3-1.93,0.9s-0.7,1.42-0.7,2.48c0,0.96,0.22,1.72,0.67,2.28s1.05,0.84,1.81,0.84c0.75,0,1.35-0.27,1.82-0.81
			C369.87,331.08,370.1,330.4,370.1,329.58z"/>
		<path class="st16" d="M374.83,322.88c-0.24,0-0.44-0.08-0.61-0.24c-0.17-0.16-0.25-0.37-0.25-0.62s0.08-0.46,0.25-0.62
			c0.17-0.17,0.37-0.25,0.61-0.25c0.25,0,0.45,0.08,0.62,0.25c0.17,0.17,0.26,0.37,0.26,0.62c0,0.24-0.09,0.44-0.26,0.61
			S375.08,322.88,374.83,322.88z M375.49,333.35h-1.34V325h1.34V333.35z"/>
		<path class="st16" d="M384.17,333.35h-1.34v-1.31h-0.03c-0.58,1-1.44,1.5-2.57,1.5c-0.83,0-1.48-0.22-1.95-0.66
			s-0.71-1.02-0.71-1.75c0-1.56,0.92-2.47,2.76-2.72l2.5-0.35c0-1.42-0.57-2.13-1.72-2.13c-1.01,0-1.91,0.34-2.72,1.03v-1.37
			c0.82-0.52,1.77-0.78,2.84-0.78c1.96,0,2.94,1.04,2.94,3.12V333.35z M382.84,329.13l-2.01,0.28c-0.62,0.09-1.09,0.24-1.4,0.46
			s-0.47,0.61-0.47,1.17c0,0.41,0.15,0.74,0.44,1s0.68,0.39,1.16,0.39c0.66,0,1.21-0.23,1.64-0.7c0.43-0.46,0.65-1.05,0.65-1.77
			v-0.83H382.84z"/>
		<path class="st16" d="M390.57,333.27c-0.32,0.17-0.73,0.26-1.25,0.26c-1.46,0-2.19-0.82-2.19-2.45v-4.94h-1.44V325h1.44v-2.04
			l1.34-0.43V325h2.1v1.14h-2.1v4.71c0,0.56,0.09,0.96,0.29,1.2s0.51,0.36,0.95,0.36c0.34,0,0.63-0.09,0.87-0.28v1.14H390.57z"/>
		<path class="st16" d="M398.94,329.51h-5.9c0.02,0.93,0.27,1.65,0.75,2.15s1.14,0.76,1.97,0.76c0.94,0,1.81-0.31,2.59-0.93v1.26
			c-0.73,0.53-1.71,0.8-2.91,0.8c-1.18,0-2.11-0.38-2.78-1.14s-1.01-1.83-1.01-3.2c0-1.3,0.37-2.36,1.11-3.18s1.65-1.23,2.74-1.23
			s1.94,0.35,2.54,1.06s0.9,1.69,0.9,2.94L398.94,329.51L398.94,329.51z M397.57,328.38c0-0.77-0.19-1.37-0.56-1.8
			s-0.88-0.64-1.53-0.64c-0.63,0-1.17,0.23-1.61,0.68c-0.44,0.45-0.71,1.04-0.82,1.77L397.57,328.38L397.57,328.38z"/>
		<path class="st16" d="M269.24,353.4h-6.07v-11.7h1.37v10.46h4.7V353.4z"/>
		<path class="st16" d="M276.84,353.4h-1.34v-1.31h-0.03c-0.58,1-1.44,1.5-2.57,1.5c-0.83,0-1.48-0.22-1.95-0.66
			s-0.71-1.02-0.71-1.75c0-1.56,0.92-2.47,2.76-2.72l2.5-0.35c0-1.42-0.57-2.13-1.72-2.13c-1.01,0-1.91,0.34-2.72,1.03v-1.37
			c0.82-0.52,1.77-0.78,2.84-0.78c1.96,0,2.94,1.04,2.94,3.12V353.4z M275.5,349.17l-2.01,0.28c-0.62,0.09-1.09,0.24-1.4,0.46
			s-0.47,0.61-0.47,1.17c0,0.41,0.15,0.74,0.44,1s0.68,0.39,1.16,0.39c0.66,0,1.21-0.23,1.64-0.7c0.43-0.46,0.65-1.05,0.65-1.77
			v-0.83H275.5z"/>
		<path class="st16" d="M286.29,353.4h-1.34v-4.76c0-1.77-0.65-2.66-1.94-2.66c-0.67,0-1.22,0.25-1.66,0.75s-0.66,1.14-0.66,1.9
			v4.76h-1.34v-8.35h1.34v1.39h0.03c0.63-1.05,1.54-1.58,2.74-1.58c0.91,0,1.61,0.29,2.1,0.89c0.48,0.59,0.73,1.44,0.73,2.56V353.4z
			"/>
		<path class="st16" d="M295.94,352.73c0,3.07-1.47,4.6-4.41,4.6c-1.03,0-1.94-0.2-2.71-0.59v-1.34c0.94,0.52,1.84,0.78,2.69,0.78
			c2.05,0,3.08-1.09,3.08-3.28V352h-0.03c-0.64,1.07-1.59,1.6-2.87,1.6c-1.04,0-1.87-0.37-2.51-1.11s-0.95-1.74-0.95-2.99
			c0-1.42,0.34-2.55,1.02-3.38s1.62-1.26,2.8-1.26c1.13,0,1.96,0.45,2.5,1.35h0.03v-1.16h1.34v7.68H295.94z M294.6,349.62v-1.23
			c0-0.66-0.22-1.23-0.67-1.7s-1.01-0.71-1.68-0.71c-0.83,0-1.47,0.3-1.94,0.9s-0.7,1.44-0.7,2.52c0,0.93,0.22,1.67,0.67,2.23
			s1.04,0.84,1.78,0.84c0.75,0,1.36-0.27,1.83-0.8C294.37,351.14,294.6,350.45,294.6,349.62z"/>
		<path class="st16" d="M305.4,353.4h-1.34v-1.32h-0.03c-0.55,1.01-1.41,1.52-2.58,1.52c-1.99,0-2.99-1.19-2.99-3.56v-4.99h1.33
			v4.78c0,1.76,0.67,2.64,2.02,2.64c0.65,0,1.19-0.24,1.61-0.72c0.42-0.48,0.63-1.11,0.63-1.89v-4.81h1.34v8.35H305.4z"/>
		<path class="st16" d="M314.08,353.4h-1.34v-1.31h-0.03c-0.58,1-1.44,1.5-2.57,1.5c-0.83,0-1.48-0.22-1.95-0.66
			s-0.71-1.02-0.71-1.75c0-1.56,0.92-2.47,2.76-2.72l2.5-0.35c0-1.42-0.57-2.13-1.72-2.13c-1.01,0-1.91,0.34-2.72,1.03v-1.37
			c0.82-0.52,1.77-0.78,2.84-0.78c1.96,0,2.94,1.04,2.94,3.12V353.4z M312.74,349.17l-2.01,0.28c-0.62,0.09-1.09,0.24-1.4,0.46
			s-0.47,0.61-0.47,1.17c0,0.41,0.15,0.74,0.44,1s0.68,0.39,1.16,0.39c0.66,0,1.21-0.23,1.64-0.7c0.43-0.46,0.65-1.05,0.65-1.77
			v-0.83H312.74z"/>
		<path class="st16" d="M323.73,352.73c0,3.07-1.47,4.6-4.41,4.6c-1.03,0-1.94-0.2-2.71-0.59v-1.34c0.94,0.52,1.84,0.78,2.69,0.78
			c2.05,0,3.08-1.09,3.08-3.28V352h-0.03c-0.64,1.07-1.59,1.6-2.87,1.6c-1.04,0-1.87-0.37-2.51-1.11s-0.95-1.74-0.95-2.99
			c0-1.42,0.34-2.55,1.02-3.38s1.62-1.26,2.8-1.26c1.13,0,1.96,0.45,2.5,1.35h0.03v-1.16h1.34v7.68H323.73z M322.39,349.62v-1.23
			c0-0.66-0.22-1.23-0.67-1.7s-1.01-0.71-1.68-0.71c-0.83,0-1.47,0.3-1.94,0.9s-0.7,1.44-0.7,2.52c0,0.93,0.22,1.67,0.67,2.23
			s1.04,0.84,1.78,0.84c0.75,0,1.36-0.27,1.83-0.8C322.16,351.14,322.39,350.45,322.39,349.62z"/>
		<path class="st16" d="M333.15,349.56h-5.9c0.02,0.93,0.27,1.65,0.75,2.15s1.14,0.76,1.97,0.76c0.94,0,1.81-0.31,2.59-0.93v1.26
			c-0.73,0.53-1.71,0.8-2.91,0.8c-1.18,0-2.11-0.38-2.78-1.14s-1.01-1.83-1.01-3.2c0-1.3,0.37-2.36,1.11-3.18s1.65-1.23,2.74-1.23
			s1.94,0.35,2.54,1.06s0.9,1.69,0.9,2.94L333.15,349.56L333.15,349.56z M331.78,348.42c0-0.77-0.19-1.37-0.56-1.8
			s-0.88-0.64-1.53-0.64c-0.63,0-1.17,0.23-1.61,0.68c-0.44,0.45-0.71,1.04-0.82,1.77L331.78,348.42L331.78,348.42z"/>
		<path class="st16" d="M343.26,356.06h-1.19c-1.69-1.93-2.53-4.3-2.53-7.12c0-2.83,0.84-5.24,2.53-7.23h1.21
			c-1.71,2.07-2.56,4.47-2.56,7.22C340.71,351.64,341.56,354.02,343.26,356.06z"/>
		<path class="st16" d="M352.93,352.91c-0.86,0.46-1.94,0.69-3.23,0.69c-1.66,0-3-0.54-4-1.61c-1-1.07-1.5-2.48-1.5-4.22
			c0-1.87,0.56-3.38,1.69-4.54s2.55-1.73,4.28-1.73c1.11,0,2.03,0.16,2.76,0.48v1.46c-0.84-0.47-1.76-0.7-2.77-0.7
			c-1.34,0-2.43,0.45-3.27,1.35c-0.83,0.9-1.25,2.1-1.25,3.6c0,1.42,0.39,2.56,1.17,3.41s1.8,1.27,3.07,1.27
			c1.17,0,2.19-0.26,3.05-0.78L352.93,352.91L352.93,352.91z"/>
		<path class="st16" d="M356.68,353.4h-1.37v-11.7h1.37V353.4z"/>
		<path class="st16" d="M365.83,353.4h-6.07v-11.7h1.37v10.46h4.7V353.4z"/>
		<path class="st16" d="M367.47,356.06h-1.19c1.7-2.03,2.54-4.41,2.54-7.14c0-2.75-0.85-5.15-2.56-7.22h1.21
			c1.7,1.99,2.54,4.4,2.54,7.23C370.02,351.76,369.17,354.13,367.47,356.06z"/>
	</g>
	
		<linearGradient id="SVGID_3_" gradientUnits="userSpaceOnUse" x1="315.1" y1="139.62" x2="315.1" y2="191.92" gradientTransform="matrix(1 0 0 -1 0 650)">
		<stop  offset="0" style="stop-color:#2488D8"/>
		<stop  offset="0.7152" style="stop-color:#106EBE"/>
	</linearGradient>
	<path class="st17" d="M408.88,510.38H221.32c-4.55,0-8.24-3.69-8.24-8.24v-35.82c0-4.55,3.69-8.24,8.24-8.24h187.56
		c4.55,0,8.24,3.69,8.24,8.24v35.82C417.12,506.69,413.43,510.38,408.88,510.38z"/>
	<g>
		<path class="st16" d="M253.43,478.66c-0.86,0.46-1.94,0.69-3.23,0.69c-1.66,0-3-0.54-4-1.61c-1-1.07-1.5-2.48-1.5-4.22
			c0-1.87,0.56-3.38,1.69-4.54s2.55-1.73,4.28-1.73c1.11,0,2.03,0.16,2.76,0.48v1.46c-0.84-0.47-1.76-0.7-2.77-0.7
			c-1.34,0-2.43,0.45-3.27,1.35c-0.83,0.9-1.25,2.1-1.25,3.6c0,1.42,0.39,2.56,1.17,3.41s1.8,1.27,3.07,1.27
			c1.17,0,2.19-0.26,3.05-0.78V478.66z"/>
		<path class="st16" d="M259.12,479.34c-1.23,0-2.22-0.39-2.96-1.17c-0.74-0.78-1.11-1.81-1.11-3.1c0-1.4,0.38-2.5,1.15-3.29
			c0.77-0.79,1.8-1.18,3.11-1.18c1.25,0,2.22,0.38,2.92,1.15s1.05,1.83,1.05,3.19c0,1.33-0.38,2.4-1.13,3.2
			S260.39,479.34,259.12,479.34z M259.22,471.72c-0.86,0-1.54,0.29-2.04,0.88c-0.5,0.58-0.75,1.39-0.75,2.42
			c0,0.99,0.25,1.77,0.76,2.34s1.18,0.86,2.03,0.86c0.86,0,1.53-0.28,1.99-0.84s0.7-1.36,0.7-2.39c0-1.04-0.23-1.85-0.7-2.41
			S260.08,471.72,259.22,471.72z"/>
		<path class="st16" d="M277.28,479.14h-1.34v-4.8c0-0.92-0.14-1.59-0.43-2.01c-0.29-0.41-0.77-0.62-1.44-0.62
			c-0.57,0-1.06,0.26-1.46,0.78s-0.6,1.15-0.6,1.88v4.76h-1.34v-4.96c0-1.64-0.63-2.46-1.9-2.46c-0.59,0-1.07,0.25-1.45,0.74
			s-0.57,1.13-0.57,1.92v4.76h-1.34v-8.35h1.34v1.32h0.03c0.59-1.01,1.46-1.52,2.59-1.52c0.57,0,1.07,0.16,1.49,0.48
			c0.42,0.32,0.71,0.74,0.87,1.25c0.62-1.15,1.54-1.73,2.77-1.73c1.84,0,2.76,1.13,2.76,3.4v5.16H277.28z"/>
		<path class="st16" d="M291.67,479.14h-1.34v-4.8c0-0.92-0.14-1.59-0.43-2.01c-0.29-0.41-0.77-0.62-1.44-0.62
			c-0.57,0-1.06,0.26-1.46,0.78s-0.6,1.15-0.6,1.88v4.76h-1.34v-4.96c0-1.64-0.63-2.46-1.9-2.46c-0.59,0-1.07,0.25-1.45,0.74
			s-0.57,1.13-0.57,1.92v4.76h-1.34v-8.35h1.34v1.32h0.03c0.59-1.01,1.46-1.52,2.59-1.52c0.57,0,1.07,0.16,1.49,0.48
			c0.42,0.32,0.71,0.74,0.87,1.25c0.62-1.15,1.54-1.73,2.77-1.73c1.84,0,2.76,1.13,2.76,3.4v5.16H291.67z"/>
		<path class="st16" d="M297.68,479.34c-1.23,0-2.22-0.39-2.96-1.17s-1.11-1.81-1.11-3.1c0-1.4,0.38-2.5,1.15-3.29
			s1.8-1.18,3.11-1.18c1.25,0,2.22,0.38,2.92,1.15s1.05,1.83,1.05,3.19c0,1.33-0.38,2.4-1.13,3.2S298.95,479.34,297.68,479.34z
			 M297.78,471.72c-0.86,0-1.54,0.29-2.04,0.88c-0.5,0.58-0.75,1.39-0.75,2.42c0,0.99,0.25,1.77,0.76,2.34s1.18,0.86,2.03,0.86
			c0.86,0,1.53-0.28,1.99-0.84s0.7-1.36,0.7-2.39c0-1.04-0.23-1.85-0.7-2.41S298.65,471.72,297.78,471.72z"/>
		<path class="st16" d="M310.92,479.14h-1.34v-4.76c0-1.77-0.65-2.66-1.94-2.66c-0.67,0-1.22,0.25-1.66,0.75s-0.66,1.14-0.66,1.9
			v4.76h-1.34v-8.35h1.34v1.39h0.03c0.63-1.05,1.54-1.58,2.74-1.58c0.91,0,1.61,0.29,2.1,0.89c0.48,0.59,0.73,1.44,0.73,2.56V479.14
			z"/>
		<path class="st16" d="M324.26,479.14h-6.07v-11.7h1.37v10.46h4.7V479.14z"/>
		<path class="st16" d="M331.85,479.14h-1.34v-1.31h-0.03c-0.58,1-1.44,1.5-2.57,1.5c-0.83,0-1.48-0.22-1.95-0.66
			s-0.71-1.02-0.71-1.75c0-1.56,0.92-2.47,2.76-2.72l2.5-0.35c0-1.42-0.57-2.13-1.72-2.13c-1.01,0-1.91,0.34-2.72,1.03v-1.37
			c0.82-0.52,1.77-0.78,2.84-0.78c1.96,0,2.94,1.04,2.94,3.12V479.14z M330.52,474.92l-2.01,0.28c-0.62,0.09-1.09,0.24-1.4,0.46
			s-0.47,0.61-0.47,1.17c0,0.41,0.15,0.74,0.44,1s0.68,0.39,1.16,0.39c0.66,0,1.21-0.23,1.64-0.7c0.43-0.46,0.65-1.05,0.65-1.77
			v-0.83H330.52z"/>
		<path class="st16" d="M341.31,479.14h-1.34v-4.76c0-1.77-0.65-2.66-1.94-2.66c-0.67,0-1.22,0.25-1.66,0.75s-0.66,1.14-0.66,1.9
			v4.76h-1.34v-8.35h1.34v1.39h0.03c0.63-1.05,1.54-1.58,2.74-1.58c0.91,0,1.61,0.29,2.1,0.89c0.48,0.59,0.73,1.44,0.73,2.56V479.14
			z"/>
		<path class="st16" d="M350.96,478.48c0,3.07-1.47,4.6-4.41,4.6c-1.03,0-1.94-0.2-2.71-0.59v-1.34c0.94,0.52,1.84,0.78,2.69,0.78
			c2.05,0,3.08-1.09,3.08-3.28v-0.91h-0.03c-0.64,1.07-1.59,1.6-2.87,1.6c-1.04,0-1.87-0.37-2.51-1.11s-0.95-1.74-0.95-2.99
			c0-1.42,0.34-2.55,1.02-3.38s1.62-1.26,2.8-1.26c1.13,0,1.96,0.45,2.5,1.35h0.03v-1.16h1.34v7.69H350.96z M349.62,475.37v-1.23
			c0-0.66-0.22-1.23-0.67-1.7s-1.01-0.71-1.68-0.71c-0.83,0-1.47,0.3-1.94,0.9s-0.7,1.44-0.7,2.52c0,0.93,0.22,1.67,0.67,2.23
			s1.04,0.84,1.78,0.84c0.75,0,1.36-0.27,1.83-0.8C349.38,476.88,349.62,476.2,349.62,475.37z"/>
		<path class="st16" d="M360.42,479.14h-1.34v-1.32h-0.03c-0.55,1.01-1.41,1.52-2.58,1.52c-1.99,0-2.99-1.19-2.99-3.56v-4.99h1.33
			v4.78c0,1.76,0.67,2.64,2.02,2.64c0.65,0,1.19-0.24,1.61-0.72c0.42-0.48,0.63-1.11,0.63-1.89v-4.81h1.34v8.35H360.42z"/>
		<path class="st16" d="M369.1,479.14h-1.34v-1.31h-0.03c-0.58,1-1.44,1.5-2.57,1.5c-0.83,0-1.48-0.22-1.95-0.66
			s-0.71-1.02-0.71-1.75c0-1.56,0.92-2.47,2.76-2.72l2.5-0.35c0-1.42-0.57-2.13-1.72-2.13c-1.01,0-1.91,0.34-2.72,1.03v-1.37
			c0.82-0.52,1.77-0.78,2.84-0.78c1.96,0,2.94,1.04,2.94,3.12V479.14z M367.76,474.92l-2.01,0.28c-0.62,0.09-1.09,0.24-1.4,0.46
			s-0.47,0.61-0.47,1.17c0,0.41,0.15,0.74,0.44,1s0.68,0.39,1.16,0.39c0.66,0,1.21-0.23,1.64-0.7c0.43-0.46,0.65-1.05,0.65-1.77
			v-0.83H367.76z"/>
		<path class="st16" d="M378.75,478.48c0,3.07-1.47,4.6-4.41,4.6c-1.03,0-1.94-0.2-2.71-0.59v-1.34c0.94,0.52,1.84,0.78,2.69,0.78
			c2.05,0,3.08-1.09,3.08-3.28v-0.91h-0.03c-0.64,1.07-1.59,1.6-2.87,1.6c-1.04,0-1.87-0.37-2.51-1.11s-0.95-1.74-0.95-2.99
			c0-1.42,0.34-2.55,1.02-3.38s1.62-1.26,2.8-1.26c1.13,0,1.96,0.45,2.5,1.35h0.03v-1.16h1.34v7.69H378.75z M377.41,475.37v-1.23
			c0-0.66-0.22-1.23-0.67-1.7s-1.01-0.71-1.68-0.71c-0.83,0-1.47,0.3-1.94,0.9s-0.7,1.44-0.7,2.52c0,0.93,0.22,1.67,0.67,2.23
			s1.04,0.84,1.78,0.84c0.75,0,1.36-0.27,1.83-0.8C377.17,476.88,377.41,476.2,377.41,475.37z"/>
		<path class="st16" d="M388.17,475.3h-5.9c0.02,0.93,0.27,1.65,0.75,2.15s1.14,0.76,1.97,0.76c0.94,0,1.81-0.31,2.59-0.93v1.26
			c-0.73,0.53-1.71,0.8-2.91,0.8c-1.18,0-2.11-0.38-2.78-1.14s-1.01-1.83-1.01-3.2c0-1.3,0.37-2.36,1.11-3.18s1.65-1.23,2.74-1.23
			s1.94,0.35,2.54,1.06s0.9,1.69,0.9,2.94L388.17,475.3L388.17,475.3z M386.8,474.17c0-0.77-0.19-1.37-0.56-1.8
			s-0.88-0.64-1.53-0.64c-0.63,0-1.17,0.23-1.61,0.68c-0.44,0.45-0.71,1.04-0.82,1.77L386.8,474.17L386.8,474.17z"/>
		<path class="st16" d="M274.01,499.19h-1.63l-1.96-3.28c-0.18-0.3-0.35-0.56-0.52-0.78c-0.17-0.21-0.34-0.39-0.52-0.53
			c-0.18-0.14-0.37-0.24-0.57-0.3s-0.43-0.09-0.69-0.09h-1.13v4.98h-1.37v-11.7h3.49c0.51,0,0.98,0.06,1.42,0.19
			c0.43,0.13,0.81,0.32,1.13,0.58c0.32,0.26,0.57,0.59,0.75,0.97c0.18,0.39,0.27,0.84,0.27,1.37c0,0.41-0.06,0.78-0.18,1.12
			s-0.3,0.64-0.52,0.91s-0.5,0.49-0.82,0.68s-0.68,0.33-1.07,0.44v0.03c0.2,0.09,0.37,0.19,0.51,0.3s0.28,0.24,0.41,0.4
			c0.13,0.15,0.26,0.33,0.39,0.52s0.27,0.42,0.43,0.67L274.01,499.19z M266.99,488.73v4.24h1.86c0.34,0,0.66-0.05,0.95-0.16
			c0.29-0.1,0.54-0.25,0.75-0.44s0.38-0.43,0.5-0.71s0.18-0.59,0.18-0.94c0-0.62-0.2-1.11-0.61-1.46c-0.41-0.35-0.99-0.53-1.76-0.53
			H266.99z"/>
		<path class="st16" d="M282.19,499.19h-1.34v-1.32h-0.03c-0.55,1.01-1.41,1.52-2.58,1.52c-1.99,0-2.99-1.19-2.99-3.56v-4.99h1.33
			v4.78c0,1.76,0.67,2.64,2.02,2.64c0.65,0,1.19-0.24,1.61-0.72c0.42-0.48,0.63-1.11,0.63-1.89v-4.81h1.34v8.35H282.19z"/>
		<path class="st16" d="M291.82,499.19h-1.34v-4.76c0-1.77-0.65-2.66-1.94-2.66c-0.67,0-1.22,0.25-1.66,0.75s-0.66,1.14-0.66,1.9
			v4.76h-1.34v-8.35h1.34v1.39h0.03c0.63-1.05,1.54-1.58,2.74-1.58c0.91,0,1.61,0.29,2.1,0.89c0.48,0.59,0.73,1.44,0.73,2.56V499.19
			z"/>
		<path class="st16" d="M298.22,499.11c-0.32,0.17-0.73,0.26-1.25,0.26c-1.46,0-2.19-0.82-2.19-2.45v-4.94h-1.44v-1.14h1.44v-2.04
			l1.34-0.43v2.47h2.1v1.14h-2.1v4.71c0,0.56,0.09,0.96,0.29,1.2s0.51,0.36,0.95,0.36c0.34,0,0.63-0.09,0.87-0.28v1.14H298.22z"/>
		<path class="st16" d="M300.69,488.72c-0.24,0-0.44-0.08-0.61-0.24c-0.17-0.16-0.25-0.37-0.25-0.62s0.08-0.46,0.25-0.62
			c0.17-0.17,0.37-0.25,0.61-0.25c0.25,0,0.45,0.08,0.62,0.25c0.17,0.17,0.26,0.37,0.26,0.62c0,0.24-0.09,0.44-0.26,0.61
			S300.94,488.72,300.69,488.72z M301.34,499.19H300v-8.35h1.34V499.19z"/>
		<path class="st16" d="M315.91,499.19h-1.34v-4.8c0-0.92-0.14-1.59-0.43-2.01c-0.29-0.41-0.77-0.62-1.44-0.62
			c-0.57,0-1.06,0.26-1.46,0.78s-0.6,1.15-0.6,1.88v4.76h-1.34v-4.96c0-1.64-0.63-2.46-1.9-2.46c-0.59,0-1.07,0.25-1.45,0.74
			s-0.57,1.13-0.57,1.92v4.76h-1.34v-8.35h1.34v1.32h0.03c0.59-1.01,1.46-1.52,2.59-1.52c0.57,0,1.07,0.16,1.49,0.48
			c0.42,0.32,0.71,0.74,0.87,1.25c0.62-1.15,1.54-1.73,2.77-1.73c1.84,0,2.76,1.13,2.76,3.4v5.16H315.91z"/>
		<path class="st16" d="M325.15,495.35h-5.9c0.02,0.93,0.27,1.65,0.75,2.15s1.14,0.76,1.97,0.76c0.94,0,1.81-0.31,2.59-0.93v1.26
			c-0.73,0.53-1.71,0.8-2.91,0.8c-1.18,0-2.11-0.38-2.78-1.14s-1.01-1.83-1.01-3.2c0-1.3,0.37-2.36,1.11-3.18s1.65-1.23,2.74-1.23
			s1.94,0.35,2.54,1.06s0.9,1.69,0.9,2.94L325.15,495.35L325.15,495.35z M323.78,494.21c0-0.77-0.19-1.37-0.56-1.8
			s-0.88-0.64-1.53-0.64c-0.63,0-1.17,0.23-1.61,0.68c-0.44,0.45-0.71,1.04-0.82,1.77L323.78,494.21L323.78,494.21z"/>
		<path class="st16" d="M335.26,501.85h-1.19c-1.69-1.93-2.53-4.3-2.53-7.12c0-2.83,0.84-5.24,2.53-7.23h1.21
			c-1.71,2.07-2.56,4.47-2.56,7.22C332.72,497.44,333.56,499.82,335.26,501.85z"/>
		<path class="st16" d="M344.93,498.7c-0.86,0.46-1.94,0.69-3.23,0.69c-1.66,0-3-0.54-4-1.61c-1-1.07-1.5-2.48-1.5-4.22
			c0-1.87,0.56-3.38,1.69-4.54s2.55-1.73,4.28-1.73c1.11,0,2.03,0.16,2.76,0.48v1.46c-0.84-0.47-1.76-0.7-2.77-0.7
			c-1.34,0-2.43,0.45-3.27,1.35c-0.83,0.9-1.25,2.1-1.25,3.6c0,1.42,0.39,2.56,1.17,3.41s1.8,1.27,3.07,1.27
			c1.17,0,2.19-0.26,3.05-0.78L344.93,498.7L344.93,498.7z"/>
		<path class="st16" d="M353.39,499.19h-6.07v-11.7h1.37v10.46h4.7V499.19z"/>
		<path class="st16" d="M363.57,499.19h-1.63l-1.96-3.28c-0.18-0.3-0.35-0.56-0.52-0.78c-0.17-0.21-0.34-0.39-0.52-0.53
			c-0.18-0.14-0.37-0.24-0.57-0.3s-0.43-0.09-0.69-0.09h-1.13v4.98h-1.37v-11.7h3.49c0.51,0,0.98,0.06,1.42,0.19
			c0.43,0.13,0.81,0.32,1.13,0.58c0.32,0.26,0.57,0.59,0.75,0.97c0.18,0.39,0.27,0.84,0.27,1.37c0,0.41-0.06,0.78-0.18,1.12
			s-0.3,0.64-0.52,0.91s-0.5,0.49-0.82,0.68s-0.68,0.33-1.07,0.44v0.03c0.2,0.09,0.37,0.19,0.51,0.3s0.28,0.24,0.41,0.4
			c0.13,0.15,0.26,0.33,0.39,0.52s0.27,0.42,0.43,0.67L363.57,499.19z M356.55,488.73v4.24h1.86c0.34,0,0.66-0.05,0.95-0.16
			c0.29-0.1,0.54-0.25,0.75-0.44s0.38-0.43,0.5-0.71s0.18-0.59,0.18-0.94c0-0.62-0.2-1.11-0.61-1.46c-0.41-0.35-0.99-0.53-1.76-0.53
			H356.55z"/>
		<path class="st16" d="M365.03,501.85h-1.19c1.7-2.03,2.54-4.41,2.54-7.14c0-2.75-0.85-5.15-2.56-7.22h1.21
			c1.7,1.99,2.54,4.4,2.54,7.23C367.57,497.55,366.72,499.92,365.03,501.85z"/>
	</g>
	<g>
		<path class="st16" d="M278.06,592.07h-1.36v-7.85c0-0.62,0.04-1.38,0.11-2.28h-0.03c-0.13,0.53-0.25,0.91-0.35,1.13l-4,8.99h-0.67
			l-3.99-8.92c-0.11-0.26-0.23-0.66-0.35-1.2h-0.03c0.04,0.47,0.06,1.23,0.06,2.29v7.83h-1.32v-11.7h1.81l3.59,8.16
			c0.28,0.63,0.46,1.09,0.54,1.4h0.05c0.23-0.64,0.42-1.12,0.56-1.44l3.66-8.12h1.71v11.71H278.06z"/>
		<path class="st16" d="M286.94,592.07h-1.34v-1.31h-0.03c-0.58,1-1.44,1.5-2.57,1.5c-0.83,0-1.48-0.22-1.95-0.66
			s-0.71-1.02-0.71-1.75c0-1.56,0.92-2.47,2.76-2.72l2.5-0.35c0-1.42-0.57-2.13-1.72-2.13c-1.01,0-1.91,0.34-2.72,1.03v-1.37
			c0.82-0.52,1.77-0.78,2.84-0.78c1.96,0,2.94,1.04,2.94,3.12V592.07z M285.6,587.84l-2.01,0.28c-0.62,0.09-1.09,0.24-1.4,0.46
			s-0.47,0.61-0.47,1.17c0,0.41,0.15,0.74,0.44,1s0.68,0.39,1.16,0.39c0.66,0,1.21-0.23,1.64-0.7c0.43-0.46,0.65-1.05,0.65-1.77
			v-0.83H285.6z"/>
		<path class="st16" d="M295.15,591.68c-0.64,0.39-1.4,0.58-2.28,0.58c-1.19,0-2.15-0.39-2.88-1.16s-1.1-1.78-1.1-3.01
			c0-1.38,0.39-2.48,1.18-3.32c0.79-0.83,1.84-1.25,3.16-1.25c0.73,0,1.38,0.14,1.94,0.41v1.37c-0.62-0.44-1.28-0.65-1.99-0.65
			c-0.85,0-1.55,0.31-2.1,0.92c-0.55,0.61-0.82,1.42-0.82,2.41c0,0.98,0.26,1.75,0.77,2.32c0.51,0.57,1.2,0.85,2.07,0.85
			c0.73,0,1.41-0.24,2.06-0.73L295.15,591.68L295.15,591.68z"/>
		<path class="st16" d="M304.11,592.07h-1.34v-4.81c0-1.74-0.65-2.61-1.94-2.61c-0.65,0-1.2,0.25-1.65,0.75
			c-0.45,0.5-0.67,1.15-0.67,1.94v4.73h-1.34V579.7h1.34v5.4h0.03c0.64-1.05,1.55-1.58,2.74-1.58c1.88,0,2.82,1.13,2.82,3.4v5.15
			H304.11z"/>
		<path class="st16" d="M307.31,581.59c-0.24,0-0.44-0.08-0.61-0.24c-0.17-0.16-0.25-0.37-0.25-0.62s0.08-0.46,0.25-0.62
			c0.17-0.17,0.37-0.25,0.61-0.25c0.25,0,0.45,0.08,0.62,0.25c0.17,0.17,0.26,0.37,0.26,0.62c0,0.24-0.09,0.44-0.26,0.61
			S307.56,581.59,307.31,581.59z M307.96,592.07h-1.34v-8.35h1.34V592.07z"/>
		<path class="st16" d="M317.61,592.07h-1.34v-4.76c0-1.77-0.65-2.66-1.94-2.66c-0.67,0-1.22,0.25-1.66,0.75s-0.66,1.14-0.66,1.9
			v4.76h-1.34v-8.35h1.34v1.39h0.03c0.63-1.05,1.54-1.58,2.74-1.58c0.91,0,1.61,0.29,2.1,0.89c0.48,0.59,0.73,1.44,0.73,2.56V592.07
			z"/>
		<path class="st16" d="M326.84,588.22h-5.9c0.02,0.93,0.27,1.65,0.75,2.15s1.14,0.76,1.97,0.76c0.94,0,1.81-0.31,2.59-0.93v1.26
			c-0.73,0.53-1.71,0.8-2.91,0.8c-1.18,0-2.11-0.38-2.78-1.14s-1.01-1.83-1.01-3.2c0-1.3,0.37-2.36,1.11-3.18s1.65-1.23,2.74-1.23
			s1.94,0.35,2.54,1.06s0.9,1.69,0.9,2.94L326.84,588.22L326.84,588.22z M325.47,587.09c0-0.77-0.19-1.37-0.56-1.8
			s-0.88-0.64-1.53-0.64c-0.63,0-1.17,0.23-1.61,0.68c-0.44,0.45-0.71,1.04-0.82,1.77h4.52V587.09z"/>
		<path class="st16" d="M339.13,591.68c-0.64,0.39-1.4,0.58-2.28,0.58c-1.19,0-2.15-0.39-2.88-1.16s-1.1-1.78-1.1-3.01
			c0-1.38,0.39-2.48,1.18-3.32c0.79-0.83,1.84-1.25,3.16-1.25c0.73,0,1.38,0.14,1.94,0.41v1.37c-0.62-0.44-1.28-0.65-1.99-0.65
			c-0.85,0-1.55,0.31-2.1,0.92c-0.55,0.61-0.82,1.42-0.82,2.41c0,0.98,0.26,1.75,0.77,2.32c0.51,0.57,1.2,0.85,2.07,0.85
			c0.73,0,1.41-0.24,2.06-0.73L339.13,591.68L339.13,591.68z"/>
		<path class="st16" d="M344.65,592.26c-1.23,0-2.22-0.39-2.96-1.17c-0.74-0.78-1.11-1.81-1.11-3.1c0-1.4,0.38-2.5,1.15-3.29
			s1.8-1.18,3.11-1.18c1.25,0,2.22,0.38,2.92,1.15s1.05,1.83,1.05,3.19c0,1.33-0.38,2.4-1.13,3.2S345.91,592.26,344.65,592.26z
			 M344.74,584.64c-0.86,0-1.54,0.29-2.04,0.88c-0.5,0.58-0.75,1.39-0.75,2.42c0,0.99,0.25,1.77,0.76,2.34s1.18,0.86,2.03,0.86
			c0.86,0,1.53-0.28,1.99-0.84s0.7-1.36,0.7-2.39c0-1.04-0.23-1.85-0.7-2.41S345.61,584.64,344.74,584.64z"/>
		<path class="st16" d="M358.07,592.07h-1.34v-1.42h-0.03c-0.62,1.08-1.58,1.62-2.87,1.62c-1.05,0-1.89-0.37-2.52-1.12
			c-0.63-0.75-0.94-1.77-0.94-3.05c0-1.38,0.35-2.49,1.04-3.32s1.62-1.25,2.78-1.25c1.15,0,1.98,0.45,2.5,1.35h0.03v-5.17h1.34
			L358.07,592.07L358.07,592.07z M356.73,588.29v-1.23c0-0.67-0.22-1.25-0.67-1.71c-0.45-0.47-1.01-0.7-1.7-0.7
			c-0.82,0-1.46,0.3-1.93,0.9s-0.7,1.42-0.7,2.48c0,0.96,0.22,1.72,0.67,2.28c0.45,0.56,1.05,0.84,1.81,0.84
			c0.75,0,1.35-0.27,1.82-0.81C356.5,589.79,356.73,589.11,356.73,588.29z"/>
		<path class="st16" d="M367.49,588.22h-5.9c0.02,0.93,0.27,1.65,0.75,2.15s1.14,0.76,1.97,0.76c0.94,0,1.81-0.31,2.59-0.93v1.26
			c-0.73,0.53-1.71,0.8-2.91,0.8c-1.18,0-2.11-0.38-2.78-1.14s-1.01-1.83-1.01-3.2c0-1.3,0.37-2.36,1.11-3.18s1.65-1.23,2.74-1.23
			s1.94,0.35,2.54,1.06s0.9,1.69,0.9,2.94L367.49,588.22L367.49,588.22z M366.12,587.09c0-0.77-0.19-1.37-0.56-1.8
			s-0.88-0.64-1.53-0.64c-0.63,0-1.17,0.23-1.61,0.68c-0.44,0.45-0.71,1.04-0.82,1.77h4.52V587.09z"/>
	</g>
	<g>
		<path d="M161.63,185.16c-0.86,0.46-1.94,0.69-3.23,0.69c-1.66,0-3-0.54-4-1.61s-1.5-2.48-1.5-4.22c0-1.87,0.56-3.38,1.69-4.54
			s2.55-1.73,4.28-1.73c1.11,0,2.03,0.16,2.76,0.48v1.46c-0.84-0.47-1.76-0.7-2.77-0.7c-1.34,0-2.43,0.45-3.27,1.35
			c-0.83,0.9-1.25,2.1-1.25,3.6c0,1.42,0.39,2.56,1.17,3.41s1.8,1.27,3.07,1.27c1.17,0,2.19-0.26,3.05-0.78V185.16z"/>
		<path d="M171.99,177.24l-0.19,0.86h-2.13l-0.51,2.45h2.29l-0.22,0.86h-2.24l-0.72,3.24h-1.03l0.7-3.24h-2.04l-0.69,3.24h-1.02
			l0.69-3.24h-2.14l0.16-0.86h2.16l0.5-2.45h-2.26l0.17-0.86h2.26l0.69-3.28h1.03l-0.69,3.28h2.06l0.7-3.28h1l-0.69,3.28H171.99z
			 M168.66,178.1h-2.06l-0.54,2.45h2.07L168.66,178.1z"/>
		<path d="M137.12,205.32c-0.64,0.39-1.4,0.58-2.28,0.58c-1.19,0-2.15-0.39-2.88-1.16s-1.1-1.78-1.1-3.01
			c0-1.38,0.39-2.48,1.18-3.32c0.79-0.83,1.84-1.25,3.16-1.25c0.73,0,1.38,0.14,1.94,0.41v1.37c-0.62-0.44-1.28-0.65-1.99-0.65
			c-0.85,0-1.55,0.31-2.1,0.92s-0.82,1.42-0.82,2.41c0,0.98,0.26,1.75,0.77,2.32c0.51,0.57,1.2,0.85,2.07,0.85
			c0.73,0,1.41-0.24,2.06-0.73L137.12,205.32L137.12,205.32z"/>
		<path d="M142.63,205.9c-1.23,0-2.22-0.39-2.96-1.17s-1.11-1.81-1.11-3.1c0-1.4,0.38-2.5,1.15-3.29c0.77-0.79,1.8-1.18,3.11-1.18
			c1.25,0,2.22,0.38,2.92,1.15c0.7,0.77,1.05,1.83,1.05,3.19c0,1.33-0.38,2.4-1.13,3.2S143.9,205.9,142.63,205.9z M142.73,198.28
			c-0.86,0-1.54,0.29-2.04,0.88c-0.5,0.58-0.75,1.39-0.75,2.42c0,0.99,0.25,1.77,0.76,2.34c0.51,0.57,1.18,0.86,2.03,0.86
			c0.86,0,1.53-0.28,1.99-0.84s0.7-1.36,0.7-2.39c0-1.04-0.23-1.85-0.7-2.41S143.59,198.28,142.73,198.28z"/>
		<path d="M160.79,205.7h-1.34v-4.8c0-0.92-0.14-1.59-0.43-2.01c-0.29-0.41-0.77-0.62-1.44-0.62c-0.57,0-1.06,0.26-1.46,0.78
			c-0.4,0.52-0.6,1.15-0.6,1.88v4.76h-1.34v-4.96c0-1.64-0.63-2.46-1.9-2.46c-0.59,0-1.07,0.25-1.45,0.74
			c-0.38,0.49-0.57,1.13-0.57,1.92v4.76h-1.34v-8.35h1.34v1.32h0.03c0.59-1.01,1.46-1.52,2.59-1.52c0.57,0,1.07,0.16,1.49,0.48
			c0.42,0.32,0.71,0.74,0.87,1.25c0.62-1.15,1.54-1.73,2.77-1.73c1.84,0,2.76,1.13,2.76,3.4v5.16H160.79z"/>
		<path d="M164.69,204.49h-0.03v5.05h-1.34v-12.19h1.34v1.47h0.03c0.66-1.11,1.62-1.66,2.89-1.66c1.08,0,1.92,0.37,2.52,1.12
			s0.91,1.75,0.91,3.01c0,1.4-0.34,2.52-1.02,3.36s-1.61,1.26-2.79,1.26C166.11,205.9,165.27,205.43,164.69,204.49z M164.65,201.12
			v1.17c0,0.69,0.22,1.28,0.67,1.76s1.02,0.72,1.71,0.72c0.81,0,1.45-0.31,1.91-0.93s0.69-1.48,0.69-2.59
			c0-0.93-0.21-1.66-0.64-2.19s-1.01-0.79-1.75-0.79c-0.78,0-1.4,0.27-1.88,0.81S164.65,200.31,164.65,201.12z"/>
		<path d="M173.82,195.23c-0.24,0-0.44-0.08-0.61-0.24s-0.25-0.37-0.25-0.62s0.08-0.46,0.25-0.62c0.17-0.17,0.37-0.25,0.61-0.25
			c0.25,0,0.45,0.08,0.62,0.25s0.26,0.37,0.26,0.62c0,0.24-0.09,0.44-0.26,0.61S174.07,195.23,173.82,195.23z M174.47,205.7h-1.34
			v-8.35h1.34V205.7z"/>
		<path d="M178.52,205.7h-1.34v-12.37h1.34V205.7z"/>
		<path d="M187.94,201.86h-5.9c0.02,0.93,0.27,1.65,0.75,2.15s1.14,0.76,1.97,0.76c0.94,0,1.81-0.31,2.59-0.93v1.26
			c-0.73,0.53-1.71,0.8-2.91,0.8c-1.18,0-2.11-0.38-2.78-1.14s-1.01-1.83-1.01-3.2c0-1.3,0.37-2.36,1.11-3.18
			c0.74-0.82,1.65-1.23,2.74-1.23s1.94,0.35,2.54,1.06c0.6,0.71,0.9,1.69,0.9,2.94V201.86z M186.57,200.72
			c0-0.77-0.19-1.37-0.56-1.8c-0.37-0.43-0.88-0.64-1.53-0.64c-0.63,0-1.17,0.23-1.61,0.68s-0.71,1.04-0.82,1.77L186.57,200.72
			L186.57,200.72z"/>
		<path d="M194.32,198.7c-0.23-0.18-0.57-0.27-1.01-0.27c-0.57,0-1.05,0.27-1.43,0.81c-0.38,0.54-0.58,1.27-0.58,2.2v4.26h-1.34
			v-8.35h1.34v1.72h0.03c0.19-0.59,0.48-1.05,0.87-1.37c0.39-0.33,0.83-0.49,1.31-0.49c0.35,0,0.61,0.04,0.8,0.11L194.32,198.7
			L194.32,198.7z"/>
	</g>
	<g>
		<path class="st18" d="M231.54,611.08v8.59h-1.85v-6.5c-0.1,0.09-0.22,0.17-0.36,0.25s-0.29,0.15-0.44,0.22s-0.32,0.12-0.49,0.16
			s-0.33,0.08-0.5,0.1v-1.56c0.48-0.14,0.93-0.32,1.36-0.54s0.81-0.46,1.15-0.72H231.54z"/>
		<path class="st18" d="M238.97,619.82c-2,0-3-1.4-3-4.21c0-1.46,0.27-2.57,0.81-3.33s1.33-1.15,2.35-1.15
			c1.95,0,2.93,1.43,2.93,4.28c0,1.42-0.27,2.51-0.8,3.27S239.96,619.82,238.97,619.82z M239.05,612.54c-0.8,0-1.2,1.01-1.2,3.02
			c0,1.89,0.39,2.84,1.18,2.84c0.77,0,1.15-0.98,1.15-2.93S239.8,612.54,239.05,612.54z"/>
		<path class="st18" d="M249.33,611.08v8.59h-1.85v-6.5c-0.1,0.09-0.22,0.17-0.36,0.25s-0.29,0.15-0.44,0.22s-0.32,0.12-0.49,0.16
			s-0.33,0.08-0.5,0.1v-1.56c0.48-0.14,0.93-0.32,1.36-0.54s0.81-0.46,1.15-0.72H249.33z"/>
		<path class="st18" d="M256.76,619.82c-2,0-3-1.4-3-4.21c0-1.46,0.27-2.57,0.81-3.33s1.33-1.15,2.35-1.15
			c1.95,0,2.93,1.43,2.93,4.28c0,1.42-0.27,2.51-0.8,3.27S257.75,619.82,256.76,619.82z M256.84,612.54c-0.8,0-1.2,1.01-1.2,3.02
			c0,1.89,0.39,2.84,1.18,2.84c0.77,0,1.15-0.98,1.15-2.93S257.59,612.54,256.84,612.54z"/>
		<path class="st18" d="M265.65,619.82c-2,0-3-1.4-3-4.21c0-1.46,0.27-2.57,0.81-3.33s1.33-1.15,2.35-1.15
			c1.95,0,2.93,1.43,2.93,4.28c0,1.42-0.27,2.51-0.8,3.27S266.65,619.82,265.65,619.82z M265.73,612.54c-0.8,0-1.2,1.01-1.2,3.02
			c0,1.89,0.39,2.84,1.18,2.84c0.77,0,1.15-0.98,1.15-2.93S266.48,612.54,265.73,612.54z"/>
		<path class="st18" d="M276.01,611.08v8.59h-1.85v-6.5c-0.1,0.09-0.22,0.17-0.36,0.25s-0.29,0.15-0.44,0.22s-0.32,0.12-0.49,0.16
			s-0.33,0.08-0.5,0.1v-1.56c0.48-0.14,0.93-0.32,1.36-0.54s0.81-0.46,1.15-0.72H276.01z"/>
		<path class="st18" d="M283.44,619.82c-2,0-3-1.4-3-4.21c0-1.46,0.27-2.57,0.81-3.33s1.33-1.15,2.35-1.15
			c1.95,0,2.93,1.43,2.93,4.28c0,1.42-0.27,2.51-0.8,3.27S284.43,619.82,283.44,619.82z M283.52,612.54c-0.8,0-1.2,1.01-1.2,3.02
			c0,1.89,0.39,2.84,1.18,2.84c0.77,0,1.15-0.98,1.15-2.93S284.27,612.54,283.52,612.54z"/>
		<path class="st18" d="M293.8,611.08v8.59h-1.85v-6.5c-0.1,0.09-0.22,0.17-0.36,0.25s-0.29,0.15-0.44,0.22s-0.32,0.12-0.49,0.16
			s-0.33,0.08-0.5,0.1v-1.56c0.48-0.14,0.93-0.32,1.36-0.54s0.81-0.46,1.15-0.72H293.8z"/>
		<path class="st18" d="M302.7,611.08v8.59h-1.85v-6.5c-0.1,0.09-0.22,0.17-0.36,0.25s-0.29,0.15-0.44,0.22s-0.32,0.12-0.49,0.16
			s-0.33,0.08-0.5,0.1v-1.56c0.48-0.14,0.93-0.32,1.36-0.54s0.81-0.46,1.15-0.72H302.7z"/>
		<path class="st18" d="M310.12,619.82c-2,0-3-1.4-3-4.21c0-1.46,0.27-2.57,0.81-3.33s1.33-1.15,2.35-1.15
			c1.95,0,2.93,1.43,2.93,4.28c0,1.42-0.27,2.51-0.8,3.27S311.12,619.82,310.12,619.82z M310.2,612.54c-0.8,0-1.2,1.01-1.2,3.02
			c0,1.89,0.39,2.84,1.18,2.84c0.77,0,1.15-0.98,1.15-2.93S310.95,612.54,310.2,612.54z"/>
		<path class="st18" d="M320.49,611.08v8.59h-1.85v-6.5c-0.1,0.09-0.22,0.17-0.36,0.25s-0.29,0.15-0.44,0.22s-0.32,0.12-0.49,0.16
			s-0.33,0.08-0.5,0.1v-1.56c0.48-0.14,0.93-0.32,1.36-0.54s0.81-0.46,1.15-0.72H320.49z"/>
		<path class="st18" d="M327.91,619.82c-2,0-3-1.4-3-4.21c0-1.46,0.27-2.57,0.81-3.33s1.33-1.15,2.35-1.15
			c1.95,0,2.93,1.43,2.93,4.28c0,1.42-0.27,2.51-0.8,3.27S328.91,619.82,327.91,619.82z M327.99,612.54c-0.8,0-1.2,1.01-1.2,3.02
			c0,1.89,0.39,2.84,1.18,2.84c0.77,0,1.15-0.98,1.15-2.93S328.74,612.54,327.99,612.54z"/>
		<path class="st18" d="M338.28,611.08v8.59h-1.85v-6.5c-0.1,0.09-0.22,0.17-0.36,0.25s-0.29,0.15-0.44,0.22s-0.32,0.12-0.49,0.16
			s-0.33,0.08-0.5,0.1v-1.56c0.48-0.14,0.93-0.32,1.36-0.54s0.81-0.46,1.15-0.72H338.28z"/>
		<path class="st18" d="M347.17,611.08v8.59h-1.85v-6.5c-0.1,0.09-0.22,0.17-0.36,0.25s-0.29,0.15-0.44,0.22s-0.32,0.12-0.49,0.16
			s-0.33,0.08-0.5,0.1v-1.56c0.48-0.14,0.93-0.32,1.36-0.54s0.81-0.46,1.15-0.72H347.17z"/>
		<path class="st18" d="M356.06,611.08v8.59h-1.85v-6.5c-0.1,0.09-0.22,0.17-0.36,0.25s-0.29,0.15-0.44,0.22s-0.32,0.12-0.49,0.16
			s-0.33,0.08-0.5,0.1v-1.56c0.48-0.14,0.93-0.32,1.36-0.54s0.81-0.46,1.15-0.72H356.06z"/>
		<path class="st18" d="M363.49,619.82c-2,0-3-1.4-3-4.21c0-1.46,0.27-2.57,0.81-3.33s1.33-1.15,2.35-1.15
			c1.95,0,2.93,1.43,2.93,4.28c0,1.42-0.27,2.51-0.8,3.27S364.48,619.82,363.49,619.82z M363.57,612.54c-0.8,0-1.2,1.01-1.2,3.02
			c0,1.89,0.39,2.84,1.18,2.84c0.77,0,1.15-0.98,1.15-2.93S364.32,612.54,363.57,612.54z"/>
		<path class="st18" d="M373.85,611.08v8.59H372v-6.5c-0.1,0.09-0.22,0.17-0.36,0.25s-0.29,0.15-0.44,0.22s-0.32,0.12-0.49,0.16
			s-0.33,0.08-0.5,0.1v-1.56c0.48-0.14,0.93-0.32,1.36-0.54s0.81-0.46,1.15-0.72H373.85z"/>
		<path class="st18" d="M381.28,619.82c-2,0-3-1.4-3-4.21c0-1.46,0.27-2.57,0.81-3.33s1.33-1.15,2.35-1.15
			c1.95,0,2.93,1.43,2.93,4.28c0,1.42-0.27,2.51-0.8,3.27S382.27,619.82,381.28,619.82z M381.36,612.54c-0.8,0-1.2,1.01-1.2,3.02
			c0,1.89,0.39,2.84,1.18,2.84c0.77,0,1.15-0.98,1.15-2.93S382.11,612.54,381.36,612.54z"/>
		<path class="st18" d="M390.17,619.82c-2,0-3-1.4-3-4.21c0-1.46,0.27-2.57,0.81-3.33s1.33-1.15,2.35-1.15
			c1.95,0,2.93,1.43,2.93,4.28c0,1.42-0.27,2.51-0.8,3.27S391.17,619.82,390.17,619.82z M390.25,612.54c-0.8,0-1.2,1.01-1.2,3.02
			c0,1.89,0.39,2.84,1.18,2.84c0.77,0,1.15-0.98,1.15-2.93S391,612.54,390.25,612.54z"/>
		<path class="st18" d="M400.54,611.08v8.59h-1.85v-6.5c-0.1,0.09-0.22,0.17-0.36,0.25s-0.29,0.15-0.44,0.22s-0.32,0.12-0.49,0.16
			s-0.33,0.08-0.5,0.1v-1.56c0.48-0.14,0.93-0.32,1.36-0.54s0.81-0.46,1.15-0.72H400.54z"/>
	</g>
</g>
</svg>
